<?xml version="1.0" encoding="UTF-8" standalone="no"?>
<svg
   sodipodi:docname="Bart-logo.svg"
   inkscape:version="1.3.2 (091e20e, 2023-11-25, custom)"
   id="svg8"
   version="1.1"
   viewBox="0 0 434.48291 264.585"
   height="1000.0063"
   width="1642.1401"
   xmlns:inkscape="http://www.inkscape.org/namespaces/inkscape"
   xmlns:sodipodi="http://sodipodi.sourceforge.net/DTD/sodipodi-0.dtd"
   xmlns="http://www.w3.org/2000/svg"
   xmlns:svg="http://www.w3.org/2000/svg"
   xmlns:rdf="http://www.w3.org/1999/02/22-rdf-syntax-ns#"
   xmlns:cc="http://creativecommons.org/ns#"
   xmlns:dc="http://purl.org/dc/elements/1.1/">
  <defs
     id="defs2" />
  <sodipodi:namedview
     inkscape:pagecheckerboard="true"
     inkscape:document-rotation="0"
     units="px"
     inkscape:window-maximized="1"
     inkscape:window-y="-8"
     inkscape:window-x="-8"
     inkscape:window-height="1137"
     inkscape:window-width="1920"
     showgrid="false"
     inkscape:current-layer="layer1"
     inkscape:document-units="mm"
     inkscape:cy="445"
     inkscape:cx="1018"
     inkscape:zoom="0.5"
     inkscape:pageshadow="2"
     inkscape:pageopacity="0.0"
     borderopacity="1.0"
     bordercolor="#666666"
     pagecolor="#ffffff"
     id="base"
     inkscape:showpageshadow="2"
     inkscape:deskcolor="#d1d1d1" />
  <metadata
     id="metadata5">
    <rdf:RDF>
      <cc:Work
         rdf:about="">
        <dc:format>image/svg+xml</dc:format>
        <dc:type
           rdf:resource="http://purl.org/dc/dcmitype/StillImage" />
        <dc:title />
      </cc:Work>
    </rdf:RDF>
  </metadata>
  <g
     transform="translate(-93.614813,-159.24067)"
     id="layer1"
     inkscape:groupmode="layer"
     inkscape:label="Layer 1">
    <g
       transform="matrix(6.0903726,0,0,6.0903943,0.60264313,69.486534)"
       id="g829">
      <path
         id="path825"
         d="m 74.332,27.302 c 0,0 0,1.196 0,1.792 -2.5,-1.438 -5.694,-2.163 -9.521,-2.15 h -0.179 c -2.016,-0.005 -8.597,0.291 -13.172,4.059 3.236,2.587 5.344,6.391 5.344,11.5 0,5.337 -2.356,8.805 -5.437,11.067 0.975,0.922 2.094,1.719 3.365,2.376 3.896,2.019 8.176,2.234 9.831,2.234 2.74,0 4.957,-0.192 9.77,-2.612 0,0.526 0,1.655 0,1.655 H 86.485 V 27.302 Z m -8.661,23.424 c -4.651,0 -8.425,-3.787 -8.425,-8.461 0,-4.676 3.772,-8.465 8.425,-8.465 4.653,0 8.425,3.789 8.425,8.465 0,4.674 -3.772,8.461 -8.425,8.461 z"
         inkscape:connector-curvature="0"
         style="fill:#0099d8" />
      <path
         id="path827"
         d="m 38.131,26.825 c -7.659,0 -9.813,1.915 -10.891,2.513 0,-2.393 0,-14.601 0,-14.601 H 15.272 V 56.985 H 26.88 v -2.036 c 3.95,2.274 8.378,2.632 11.25,2.632 4.429,0 18.67,-1.914 18.67,-15.078 C 56.802,31.852 47.706,26.825 38.131,26.825 Z m 0.053,23.901 c -4.675,0 -8.463,-3.787 -8.463,-8.461 0,-4.676 3.788,-8.465 8.463,-8.465 4.674,0 8.463,3.789 8.463,8.465 0,4.674 -3.789,8.461 -8.463,8.461 z"
         inkscape:connector-curvature="0" />
    </g>
    <path
       d="m 220.59877,203.27708 v -42.14281 h 16.86881 q 3.56048,0 5.48668,0.11654 1.92621,0.11654 4.61121,0.93389 2.685,0.7588 4.49445,2.39315 3.21029,2.91852 3.21029,7.23787 0,2.1013 -0.81714,3.85233 -0.7588,1.69277 -1.6927,2.62666 -0.93396,0.87556 -2.5099,1.63435 -1.5176,0.7588 -2.21806,0.99224 -0.64168,0.17481 -1.7511,0.46688 v 0.11653 q 1.22582,0.2338 2.1013,0.46688 0.87555,0.17481 2.5099,0.93397 1.69277,0.7588 2.74342,1.80944 1.10899,0.99224 1.92613,2.91844 0.87555,1.86787 0.87555,4.31936 0,6.47899 -5.83695,9.5726 -3.32704,1.7511 -11.38205,1.7511 z m 11.32364,-34.49641 v 9.33916 h 5.48675 q 3.09361,0 4.08585,-0.52514 2.21805,-1.22575 2.21805,-4.08585 0,-2.45156 -1.63435,-3.73565 -1.28409,-0.99231 -3.79399,-0.99231 z m 0.0575,16.81046 v 9.98114 h 6.47899 q 6.01205,0 6.01205,-4.90306 0,-5.07808 -6.36224,-5.07808 z"
       id="text1"
       style="font-weight:900;font-size:8.1139px;font-family:'Univers LT';-inkscape-font-specification:'Univers LT Heavy';fill:#000000;stroke-width:0"
       aria-label="B" />
    <path
       d="m 304.68874,203.27708 16.63532,-42.14281 h 14.24216 l 16.63533,42.14281 h -13.19151 l -2.91844,-8.46356 h -16.86883 l -2.8601,8.46356 z m 17.27735,-16.22672 h 11.4405 l -5.42834,-17.68597 h -0.17481 z"
       id="text2"
       style="font-weight:900;font-size:8.1139px;font-family:'Univers LT';-inkscape-font-specification:'Univers LT Heavy';fill:#000000;stroke-width:0"
       aria-label="A" />
    <path
       d="m 399.45719,203.27708 v -42.16026 h 19.50354 q 5.89773,0 8.52548,0.58366 2.62767,0.58365 4.43787,2.4525 2.91979,2.91972 2.91979,8.17515 0,5.43059 -3.85407,7.82473 -2.51094,1.57666 -6.42331,2.16061 v 0.23389 q 1.75183,0.0576 3.03645,0.35048 1.34306,0.29219 2.27734,0.64195 0.93435,0.35048 1.57666,1.16789 0.70096,0.81748 1.05109,1.40142 0.40877,0.58366 0.75911,1.98537 0.35048,1.34305 0.46707,2.1606 0.11658,0.81748 0.40877,2.62768 1.10952,7.76637 1.98544,10.39411 h -12.67138 q -0.58366,-2.21897 -1.40157,-9.51819 -0.17488,-1.92701 -0.35048,-2.68612 -0.11659,-0.81748 -0.46707,-1.86856 -0.35048,-1.10952 -0.93428,-1.45986 -0.58365,-0.35048 -1.63503,-0.64195 -0.99272,-0.29219 -2.56938,-0.29219 h -4.90501 v 16.46702 z m 11.73717,-34.39389 v 10.33568 h 4.37951 q 3.854,0 4.84665,-0.35049 1.69346,-0.52536 2.39414,-1.927 0.70096,-1.45986 0.70096,-2.86128 0,-1.51822 -0.58366,-2.51094 -0.52536,-1.05109 -1.22625,-1.57667 -0.64195,-0.52536 -1.927,-0.75911 -1.28469,-0.29219 -2.0438,-0.29219 -0.75912,-0.0576 -2.16054,-0.0576 z"
       id="text3"
       style="font-weight:900;font-size:8.1139px;font-family:'Univers LT';-inkscape-font-specification:'Univers LT Heavy';fill:#000000;stroke-width:0"
       aria-label="R" />
    <path
       d="m 503.17392,203.27708 v -33.79596 h -12.84131 v -8.34685 h 37.76512 v 8.34685 h -13.13316 v 33.79596 z"
       id="text4"
       style="font-weight:900;font-size:8.1139px;font-family:'Univers LT';-inkscape-font-specification:'Univers LT Heavy';fill:#000000;stroke-width:0"
       aria-label="T" />
  </g>
</svg>
