<svg xmlns="http://www.w3.org/2000/svg" viewBox="0 0 1000 1000" style="enable-background:new 0 0 1000 1000" xml:space="preserve"><path d="M500 44.3c-251.7 0-455.7 204-455.7 455.7s204 455.7 455.7 455.7 455.7-204 455.7-455.7S751.7 44.3 500 44.3zm315.7 390.8H579.1v389.2H420.9V435.1H184.3V276.9h631.3v158.2z" style="fill:#fff"/><path d="M500 0C223.9 0 0 223.9 0 500s223.9 500 500 500 500-223.9 500-500S776.1 0 500 0zm0 955.7c-251.7 0-455.7-204-455.7-455.7S248.3 44.3 500 44.3s455.7 204 455.7 455.7-204 455.7-455.7 455.7z"/><path d="M184.3 435.1h236.6v389.3h158.2V435.1h236.6V276.9H184.3z"/></svg>