<?xml version="1.0" encoding="UTF-8" standalone="no"?>
<!-- Created with Inkscape (http://www.inkscape.org/) -->
<svg
   xmlns:dc="http://purl.org/dc/elements/1.1/"
   xmlns:cc="http://creativecommons.org/ns#"
   xmlns:rdf="http://www.w3.org/1999/02/22-rdf-syntax-ns#"
   xmlns:svg="http://www.w3.org/2000/svg"
   xmlns="http://www.w3.org/2000/svg"
   xmlns:sodipodi="http://sodipodi.sourceforge.net/DTD/sodipodi-0.dtd"
   xmlns:inkscape="http://www.inkscape.org/namespaces/inkscape"
   width="662.81622"
   height="405.39682"
   id="svg11876"
   sodipodi:version="0.32"
   inkscape:version="0.46"
   version="1.0"
   sodipodi:docname="Brussels_Metro_Logo.svg"
   inkscape:output_extension="org.inkscape.output.svg.inkscape">
  <defs
     id="defs11878">
    <inkscape:perspective
       sodipodi:type="inkscape:persp3d"
       inkscape:vp_x="0 : 526.18109 : 1"
       inkscape:vp_y="0 : 1000 : 0"
       inkscape:vp_z="744.09448 : 526.18109 : 1"
       inkscape:persp3d-origin="372.04724 : 350.78739 : 1"
       id="perspective11884" />
  </defs>
  <sodipodi:namedview
     id="base"
     pagecolor="#ffffff"
     bordercolor="#666666"
     borderopacity="1.0"
     inkscape:pageopacity="0.0"
     inkscape:pageshadow="2"
     inkscape:zoom="0.35"
     inkscape:cx="350"
     inkscape:cy="520"
     inkscape:document-units="px"
     inkscape:current-layer="layer1"
     showgrid="false"
     inkscape:window-width="1280"
     inkscape:window-height="968"
     inkscape:window-x="-4"
     inkscape:window-y="-4" />
  <metadata
     id="metadata11881">
    <rdf:RDF>
      <cc:Work
         rdf:about="">
        <dc:format>image/svg+xml</dc:format>
        <dc:type
           rdf:resource="http://purl.org/dc/dcmitype/StillImage" />
      </cc:Work>
    </rdf:RDF>
  </metadata>
  <g
     inkscape:label="Ebene 1"
     inkscape:groupmode="layer"
     id="layer1"
     transform="translate(-48.591643,-193.95628)">
    <g
       id="g11864"
       transform="matrix(29.050183,0,0,29.050183,-15585.68,-11581.047)">
      <g
         transform="matrix(1.25,0,0,-1.25,538.18152,407.22699)"
         id="g6158">
        <path
           id="path6160"
           style="fill:#41a6ce;fill-opacity:1;fill-rule:nonzero;stroke:none"
           d="M 0,0 L 0,-8.133 C 0,-8.133 0,-9.649 1.55,-9.649 L 16.705,-9.649 C 16.705,-9.649 18.253,-9.649 18.253,-8.133 L 18.253,-0.028 C 18.253,-0.028 18.253,1.515 16.705,1.515 L 1.55,1.515 C 1.55,1.515 0,1.545 0,0" />
      </g>
      <g
         transform="matrix(1.25,0,0,-1.25,540.72402,407.15949)"
         id="g6162">
        <path
           id="path6164"
           style="fill:#ffffff;fill-opacity:1;fill-rule:nonzero;stroke:none"
           d="M 0,0 C 0,0 -0.264,0.516 -0.561,0.483 C -0.561,0.483 -1.176,0.551 -1.176,-0.082 L -1.176,-7.457 C -1.176,-7.457 -1.162,-8.187 -0.484,-8.187 L 1.756,-8.187 L 1.756,-3.046 L 0,0" />
      </g>
      <g
         transform="matrix(1.25,0,0,-1.25,540.29902,406.47074)"
         id="g6166">
        <path
           id="path6168"
           style="fill:#ffffff;fill-opacity:1;fill-rule:nonzero;stroke:none"
           d="M 0,0 C 0,0 0.25,-0.068 0.416,-0.392 L 3.852,-6.285 C 3.852,-6.285 4.026,-6.767 4.772,-6.767 C 4.772,-6.767 7.328,-6.773 7.33,-6.767 C 7.33,-6.759 7.213,-6.767 7.145,-6.588 L 3.543,-0.447 C 3.543,-0.447 3.361,0 2.815,0 L 0,0" />
      </g>
      <g
         transform="matrix(1.25,0,0,-1.25,547.77527,411.81199)"
         id="g6170">
        <path
           id="path6172"
           style="fill:#ffffff;fill-opacity:1;fill-rule:nonzero;stroke:none"
           d="M 0,0 C 0,0 1.202,-2.08 1.189,-2.08 C 1.175,-2.08 1.398,-2.508 1.7,-2.08 L 3.334,0.525 L 3.334,3.64 C 3.334,3.64 3.357,4.209 2.88,4.209 C 2.88,4.209 2.556,4.264 2.185,3.652 L 0,0" />
      </g>
      <g
         transform="matrix(1.25,0,0,-1.25,551.73527,406.47074)"
         id="g6174">
        <path
           id="path6176"
           style="fill:#ffffff;fill-opacity:1;fill-rule:nonzero;stroke:none"
           d="M 0,0 C 0,0 0.359,-0.123 0.359,-0.648 L 0.359,-8.738 L 5.862,-8.738 C 5.862,-8.738 6.499,-8.793 6.499,-8.133 L 6.499,-0.633 C 6.499,-0.633 6.512,0 5.862,0 L 0,0" />
      </g>
    </g>
  </g>
</svg>
