<?xml version="1.0" encoding="utf-8"?>
<!-- Generator: Adobe Illustrator 19.0.0, SVG Export Plug-In . SVG Version: 6.00 Build 0)  -->
<svg version="1.1" id="Layer_1" xmlns="http://www.w3.org/2000/svg" xmlns:xlink="http://www.w3.org/1999/xlink" x="0px" y="0px"
	 viewBox="289.4 144 382.6 273" style="enable-background:new 289.4 144 382.6 273;" xml:space="preserve">
<style type="text/css">
	.st0{fill:#9E0817;}
</style>
<g>
	<g>
		<path class="st0" d="M376.8,325.9c5.1-60.7,10.2-121.2,15.3-181.8c23,0,46,0,69.1,0c6.6,34.5,13.2,69.1,19.8,103.6
			c0.1,0,0.3,0.1,0.4,0.1c7.3-34.6,14.6-69.1,21.9-103.8c22.1,0,44,0,66.1,0c5.1,60.6,10.2,121.1,15.3,181.9c1,0,1.9,0,2.8,0
			c22.5,0,45,0,67.4,0c8.3,0,14.7,4.6,16.7,12.1c0.3,1.1,0.4,2.2,0.4,3.3c0,20.2,0,40.3,0,60.5c0,8.1-7.1,15.2-15.1,15.2
			c-117.4,0-234.9,0-352.3,0c-7.7,0-15.1-7-15.1-14.8c-0.1-20.4-0.1-40.8,0-61.2c0-8.5,7.6-15.1,17-15.1c22.4,0,44.8,0,67.2,0
			C374.5,325.9,375.4,325.9,376.8,325.9z M529.2,198.2c-0.1,0-0.2,0-0.4-0.1c-10,42.5-19.9,85-29.9,127.5c13.5,0,26.7,0,39.9,0
			C535.6,283.1,532.4,240.6,529.2,198.2z M432.5,198.8c-0.1,0-0.3,0-0.4,0.1c-3.2,42.3-6.4,84.5-9.6,126.9c12.9,0,25.5,0,38.4,0
			C451.4,283.3,442,241.1,432.5,198.8z"/>
	</g>
</g>
</svg>
