<?xml version="1.0" encoding="UTF-8" standalone="no"?>
<!DOCTYPE svg PUBLIC "-//W3C//DTD SVG 1.1//EN" "http://www.w3.org/Graphics/SVG/1.1/DTD/svg11.dtd">
<svg width="300" height="300" version="1.1" xmlns="http://www.w3.org/2000/svg">
<circle cx="150" cy="150" r="150" fill="#f57c14" />
<circle cx="150" cy="150" r="112.5" fill="#4f4c4d" />
<circle cx="150" cy="150" r="75" fill="#fff" />
<path fill="#f57c14" d="m149.642303,195.004547c-9.41983,0 -22.950783,-2.295837 -31.508713,-5.148468l4.080658,-18.984558c7.146835,2.105164 16.581924,3.897583 26.184799,3.897583c7.650238,0 8.908783,-2.150909 8.908783,-7.276489c0,-5.49173 -0.167816,-6.223953 -14.08017,-9.580017c-21.013412,-5.156097 -22.973633,-10.830872 -22.973633,-26.993286c0,-18.275185 7.131577,-25.925446 33.125687,-25.925446c6.597672,0 18.702316,0.90004 26.375473,2.86026l-2.333984,19.869308c-7.650269,-1.418686 -17.085312,-2.456017 -23.84317,-2.456017c-7.490082,0 -9.274902,1.929741 -9.274902,5.827339c0,5.331528 0.732239,6.033234 11.052063,8.34433c24.727966,5.506989 26.528046,10.830887 26.528046,28.053528c0,17.748901 -7.490082,27.511932 -32.240936,27.511932"/>
</svg>