<?xml version="1.0" encoding="utf-8"?>
<!-- Generator: Adobe Illustrator 23.0.1, SVG Export Plug-In . SVG Version: 6.00 Build 0)  -->
<svg version="1.1" id="Livello_1" xmlns="http://www.w3.org/2000/svg" xmlns:xlink="http://www.w3.org/1999/xlink" x="0px" y="0px"
	 width="512px" height="416.045px" viewBox="0 0 512 416.045" enable-background="new 0 0 512 416.045" xml:space="preserve">
<g>
	<path fill="#773DBD" d="M390.262,208.007c0,74.121-60.131,134.228-134.252,134.228c-74.139,0-134.216-60.107-134.216-134.228
		c0-74.109,60.076-134.197,134.216-134.197C330.131,73.81,390.262,133.899,390.262,208.007 M256.01,0
		C141.108,0,47.972,93.135,47.972,208.007c0,114.896,93.135,208.038,208.038,208.038c114.884,0,208.013-93.141,208.013-208.038
		C464.024,93.135,370.894,0,256.01,0"/>
	<rect y="165.944" fill="#000F9F" width="512" height="84.152"/>
	<g>
		<polygon fill="#FFFFFF" points="56.792,229.612 28.374,229.612 28.374,186.437 55.178,186.437 55.178,193.922 36.784,193.922 
			36.784,202.936 51.956,202.936 51.956,210.525 36.784,210.525 36.784,221.901 56.792,221.901 		"/>
		<polygon fill="#FFFFFF" points="88.651,229.612 62.224,229.612 62.224,186.437 70.635,186.437 70.635,221.713 88.651,221.713 		
			"/>
		<rect x="94.22" y="186.439" fill="#FFFFFF" width="8.441" height="43.175"/>
		<polygon fill="#FFFFFF" points="143.97,229.612 107.902,229.612 129.84,193.989 108.475,193.989 108.475,186.437 143.97,186.437 
			122.288,221.713 143.97,221.713 		"/>
		<path fill="#FFFFFF" d="M188.638,229.613h-9.196l-3.1-8.283h-17.735l-3.131,8.283h-9.038l16.566-43.181h8.849L188.638,229.613z
			 M173.43,213.681l-6.036-15.933l-5.938,15.933H173.43z"/>
		<path fill="#FFFFFF" d="M213.103,205.907c2.997,0.633,5.299,1.906,6.906,3.819c1.614,1.924,2.424,4.233,2.424,6.925
			c-0.024,3.794-1.377,6.907-4.05,9.325c-2.674,2.424-6.492,3.636-11.444,3.636h-14.032v-43.175h12.674
			c4.257,0,7.576,0.956,9.958,2.875c2.381,1.919,3.569,4.544,3.569,7.869c0,2.132-0.512,3.959-1.547,5.488
			C216.532,204.196,215.046,205.274,213.103,205.907 M201.312,203.252h3.825c1.73,0,3.1-0.42,4.111-1.267
			c1.011-0.84,1.516-1.992,1.516-3.441c0-1.498-0.475-2.674-1.437-3.526c-0.962-0.853-2.272-1.279-3.934-1.279h-4.08V203.252z
			 M201.312,222.278h5.627c2.193,0,3.898-0.487,5.122-1.468c1.224-0.98,1.833-2.369,1.833-4.16c0-2.022-0.639-3.539-1.913-4.55
			c-1.273-1.011-3.185-1.516-5.737-1.516h-4.933V222.278z"/>
		<polygon fill="#FFFFFF" points="257.326,229.612 228.908,229.612 228.908,186.437 255.712,186.437 255.712,193.922 
			237.318,193.922 237.318,202.936 252.49,202.936 252.49,210.525 237.318,210.525 237.318,221.901 257.326,221.901 		"/>
		<polygon fill="#FFFFFF" points="293.107,193.924 280.621,193.924 280.621,229.614 272.211,229.614 272.211,193.924 
			259.701,193.924 259.701,186.433 293.107,186.433 		"/>
		<polygon fill="#FFFFFF" points="334.869,229.612 326.458,229.612 326.458,210.585 306.768,210.585 306.768,229.612 
			298.357,229.612 298.357,186.437 306.768,186.437 306.768,202.936 326.458,202.936 326.458,186.437 334.869,186.437 		"/>
		<polygon fill="#FFFFFF" points="385.792,229.612 359.365,229.612 359.365,186.437 367.776,186.437 367.776,221.713 
			385.792,221.713 		"/>
		<rect x="391.354" y="186.439" fill="#FFFFFF" width="8.441" height="43.175"/>
		<polygon fill="#FFFFFF" points="447.72,229.612 439.278,229.612 416.232,199.836 416.232,229.612 407.821,229.612 
			407.821,186.437 416.232,186.437 439.278,216.341 439.278,186.437 447.72,186.437 		"/>
		<polygon fill="#FFFFFF" points="483.623,229.612 455.205,229.612 455.205,186.437 482.015,186.437 482.015,193.922 
			463.615,193.922 463.615,202.936 478.787,202.936 478.787,210.525 463.615,210.525 463.615,221.901 483.623,221.901 		"/>
	</g>
</g>
</svg>
