<?xml version="1.0" encoding="utf-8"?>
<!-- Generator: Adobe Illustrator 23.0.1, SVG Export Plug-In . SVG Version: 6.00 Build 0)  -->
<svg version="1.1" id="Livello_1" xmlns="http://www.w3.org/2000/svg" xmlns:xlink="http://www.w3.org/1999/xlink" x="0px" y="0px"
	 viewBox="0 0 615.318 500" enable-background="new 0 0 615.318 500" xml:space="preserve">
<g>
	<path fill="#76BC21" d="M469.453,249.982c0,89.078-72.258,161.314-161.336,161.314c-89.1,0-161.299-72.236-161.299-161.314
		c0-89.063,72.199-161.277,161.299-161.277C397.195,88.705,469.453,160.918,469.453,249.982 M308.117,0
		C170.028,0,58.099,111.929,58.099,249.982C58.099,388.063,170.028,500,308.117,500c138.06,0,249.982-111.937,249.982-250.018
		C558.099,111.929,446.177,0,308.117,0"/>
	<rect y="199.514" fill="#000F9F" width="615.318" height="101.133"/>
	<g>
		<polygon fill="#FFFFFF" points="228.255,233.198 213.25,233.198 213.25,276.09 203.142,276.09 203.142,233.198 188.101,233.198 
			188.101,224.195 228.255,224.195 		"/>
		<path fill="#FFFFFF" d="M275.554,276.09H263.66l-14.324-20.707h-4.67v20.707h-10.108v-51.895h16.798
			c5.417,0,9.713,1.361,12.897,4.084c3.169,2.723,4.765,6.412,4.765,11.074c0,3.191-0.849,5.98-2.547,8.373
			c-1.698,2.401-4.113,4.172-7.254,5.336L275.554,276.09z M244.666,232.971v13.636h4.824c2.994,0,5.306-0.637,6.953-1.918
			c1.64-1.274,2.467-3.038,2.467-5.263c0-2.006-0.747-3.572-2.24-4.706c-1.493-1.142-3.572-1.727-6.229-1.749H244.666z"/>
		<path fill="#FFFFFF" d="M327.706,276.09h-11.052l-3.726-9.962h-21.307l-3.762,9.962h-10.862l19.909-51.895h10.635L327.706,276.09z
			 M309.437,256.943l-7.254-19.148l-7.144,19.148H309.437z"/>
		<polygon fill="#FFFFFF" points="385.529,276.083 375.384,276.083 375.384,239.573 359.274,259.826 342.944,239.573 
			342.944,276.083 332.836,276.083 332.836,224.195 342.791,224.195 359.274,244.895 375.538,224.195 385.529,224.195 		"/>
		<path fill="#FFFFFF" d="M416.719,236.689c-1.552-3.038-3.938-4.56-7.188-4.56c-1.61,0-2.935,0.432-3.96,1.295
			c-1.032,0.864-1.537,1.954-1.537,3.264c0,0.966,0.263,1.837,0.798,2.606c0.527,0.776,1.347,1.523,2.467,2.24
			c1.113,0.717,3.184,1.866,6.229,3.44c4.904,2.533,8.22,4.963,9.932,7.29c1.713,2.328,2.569,5.212,2.569,8.63
			c0,4.911-1.654,8.835-4.941,11.77c-3.294,2.942-7.619,4.406-12.955,4.406c-3.799,0-7.195-0.959-10.167-2.884
			c-2.972-1.925-5.233-4.611-6.778-8.059l8.322-4.897c1.954,4.355,4.941,6.536,8.959,6.536c2.203,0,3.967-0.556,5.299-1.669
			c1.332-1.12,1.998-2.606,1.998-4.487c0-1.544-0.527-2.906-1.596-4.084c-1.069-1.178-3.901-2.906-8.505-5.182
			c-4.509-2.203-7.605-4.421-9.296-6.668c-1.683-2.24-2.525-5.05-2.525-8.417c0-3.945,1.581-7.283,4.728-10.006
			c3.155-2.723,6.917-4.084,11.265-4.084c7.144,0,12.128,2.986,14.968,8.959L416.719,236.689z"/>
	</g>
</g>
</svg>
