<?xml version="1.0" encoding="UTF-8" standalone="no"?>
<!-- Generator: Adobe Illustrator 16.0.3, SVG Export Plug-In . SVG Version: 6.00 Build 0)  -->

<svg
   version="1.1"
   id="DLR_Logo"
   x="0px"
   y="0px"
   width="520px"
   height="425px"
   viewBox="0 0 520 425"
   enable-background="new 0 0 520 425"
   xml:space="preserve"
   sodipodi:docname="london-dlr.svg"
   inkscape:version="1.4.2 (ebf0e940d0, 2025-05-08)"
   xmlns:inkscape="http://www.inkscape.org/namespaces/inkscape"
   xmlns:sodipodi="http://sodipodi.sourceforge.net/DTD/sodipodi-0.dtd"
   xmlns="http://www.w3.org/2000/svg"
   xmlns:svg="http://www.w3.org/2000/svg"><defs
   id="defs3" /><sodipodi:namedview
   id="namedview3"
   pagecolor="#ffffff"
   bordercolor="#000000"
   borderopacity="0.25"
   inkscape:showpageshadow="2"
   inkscape:pageopacity="0.0"
   inkscape:pagecheckerboard="0"
   inkscape:deskcolor="#d1d1d1"
   inkscape:zoom="2.7294118"
   inkscape:cx="260.12931"
   inkscape:cy="212.5"
   inkscape:window-width="2560"
   inkscape:window-height="1371"
   inkscape:window-x="0"
   inkscape:window-y="0"
   inkscape:window-maximized="1"
   inkscape:current-layer="DLR_Logo" />
<path
   fill="#1AA1A4"
   d="M391.477,212.488c0,72.148-58.723,130.656-131.109,130.656c-72.394,0-131.056-58.508-131.056-130.656  c0-72.15,58.662-130.635,131.056-130.635C332.754,81.853,391.477,140.338,391.477,212.488 M260.368,10  c-112.211,0-203.15,90.66-203.15,202.488c0,111.836,90.939,202.51,203.15,202.51c112.193,0,203.142-90.674,203.142-202.51  C463.512,100.66,372.563,10,260.368,10"
   id="path1" />
<path
   fill="#19509F"
   d="M10,171.602h500v81.912H10V171.602z"
   id="path2" />

</svg>
