<?xml version="1.0" encoding="utf-8"?>
<!-- Generator: Adobe Illustrator 23.0.1, SVG Export Plug-In . SVG Version: 6.00 Build 0)  -->
<svg version="1.1" id="Livello_1" xmlns="http://www.w3.org/2000/svg" xmlns:xlink="http://www.w3.org/1999/xlink" x="0px" y="0px"
	 viewBox="0 0 615.335 500" enable-background="new 0 0 615.335 500" xml:space="preserve">
<g>
	<path fill="#EE7623" d="M469.468,249.985c0,89.079-72.266,161.316-161.345,161.316c-89.094,0-161.294-72.237-161.294-161.316
		c0-89.072,72.2-161.279,161.294-161.279C397.202,88.706,469.468,160.914,469.468,249.985 M308.123,0
		C170.039,0,58.108,111.931,58.108,249.985C58.108,388.062,170.039,500,308.123,500c138.062,0,249.985-111.938,249.985-250.015
		C558.108,111.931,446.185,0,308.123,0"/>
	<rect y="199.517" fill="#000F9F" width="615.335" height="101.127"/>
	<g>
		<path fill="#FFFFFF" d="M81.164,277.09c-14.939,0-27.229-11.272-27.229-26.987c0-15.635,12.37-26.921,27.229-26.921
			c14.859,0,27.229,11.287,27.229,27.002C108.393,265.818,96.023,277.09,81.164,277.09 M81.164,233.143
			c-9.72,0-16.96,7.385-16.96,17.04c0,9.567,7.239,16.952,16.96,16.952c9.72,0,16.959-7.385,16.959-16.952
			C98.123,240.529,90.884,233.143,81.164,233.143"/>
		<polygon fill="#FFFFFF" points="138.133,276.087 128.874,276.087 108.723,224.191 119.768,224.191 133.463,260.994 
			146.924,224.191 157.815,224.191 		"/>
		<polygon fill="#FFFFFF" points="162.946,276.087 162.946,224.191 195.16,224.191 195.16,233.216 173.062,233.216 173.062,244.035 
			191.266,244.035 191.266,253.14 173.062,253.14 173.062,266.821 197.107,266.821 197.107,276.087 		"/>
		<path fill="#FFFFFF" d="M232.738,276.087l-14.317-20.7h-4.67v20.7h-10.108v-51.896h16.806c10.65,0,17.655,5.607,17.655,15.173
			c0,6.383-3.579,11.433-9.801,13.695l16.337,23.027H232.738z M219.511,232.982h-5.761v13.622h4.831c5.907,0,9.406-2.65,9.406-7.159
			C227.987,235.398,224.803,232.982,219.511,232.982"/>
		<path fill="#FFFFFF" d="M273.362,277.097c-16.257,0-28.239-11.36-28.239-26.994c0-15.247,11.982-26.921,28.085-26.921
			c6.068,0,12.216,1.64,18.05,4.589v10.584c-4.897-3.499-11.126-5.914-17.347-5.914c-11.287,0-18.518,8.088-18.518,17.896
			c0,9.955,7.393,17.735,18.204,17.735c2.723,0,5.292-0.234,8.015-1.164v-11.133h-8.483v-8.864h18.599v24.74
			C285.578,275.311,280.059,277.097,273.362,277.097"/>
		<path fill="#FFFFFF" d="M329.62,276.087l-14.317-20.7h-4.67v20.7h-10.116v-51.896h16.799c10.665,0,17.669,5.607,17.669,15.173
			c0,6.383-3.579,11.433-9.801,13.695l16.337,23.027H329.62z M316.386,232.982h-5.753v13.622h4.824c5.914,0,9.413-2.65,9.413-7.159
			C324.869,235.398,321.685,232.982,316.386,232.982"/>
		<path fill="#FFFFFF" d="M369.227,277.09c-14.932,0-27.229-11.272-27.229-26.987c0-15.635,12.377-26.921,27.229-26.921
			c14.866,0,27.236,11.287,27.236,27.002C396.462,265.818,384.092,277.09,369.227,277.09 M369.227,233.143
			c-9.72,0-16.96,7.385-16.96,17.04c0,9.567,7.239,16.952,16.96,16.952c9.728,0,16.967-7.385,16.967-16.952
			C386.193,240.529,378.954,233.143,369.227,233.143"/>
		<path fill="#FFFFFF" d="M445.006,268.621c-4.201,5.204-10.504,8.476-18.204,8.476c-7.781,0-14.002-3.191-18.357-8.557
			c-3.352-4.121-4.904-8.952-4.904-15.949v-28.4h10.108v28.48c0,8.871,5.139,14.698,13.073,14.698
			c8.169,0,13.146-5.826,13.146-14.698v-28.48h10.123v28.092C449.991,259.435,448.666,264.105,445.006,268.621"/>
		<polygon fill="#FFFFFF" points="496.587,276.087 468.89,240.294 468.89,276.087 458.774,276.087 458.774,224.191 468.89,224.191 
			496.587,260.138 496.587,224.191 506.703,224.191 506.703,276.087 		"/>
		<path fill="#FFFFFF" d="M530.199,276.087h-14.471v-51.896h17.735c17.977,0,27.624,11.821,27.624,25.289
			C561.087,263.41,550.891,276.087,530.199,276.087 M531.677,232.982h-5.834v33.999h4.978c12.062,0,19.997-6.763,19.997-17.113
			C550.818,239.445,543.586,232.982,531.677,232.982"/>
	</g>
</g>
</svg>
