<?xml version="1.0" encoding="utf-8"?>
<!-- Generator: Adobe Illustrator 16.0.3, SVG Export Plug-In . SVG Version: 6.00 Build 0)  -->
<svg version="1.1" id="DLR_Logo" xmlns="http://www.w3.org/2000/svg" xmlns:xlink="http://www.w3.org/1999/xlink" x="0px" y="0px"
	 width="520px" height="425px" viewBox="0 0 520 425" enable-background="new 0 0 520 425" xml:space="preserve">
<path fill="#1AA1A4" d="M391.477,212.488c0,72.148-58.723,130.656-131.109,130.656c-72.394,0-131.056-58.508-131.056-130.656
	c0-72.15,58.662-130.635,131.056-130.635C332.754,81.853,391.477,140.338,391.477,212.488 M260.368,10
	c-112.211,0-203.15,90.66-203.15,202.488c0,111.836,90.939,202.51,203.15,202.51c112.193,0,203.142-90.674,203.142-202.51
	C463.512,100.66,372.563,10,260.368,10"/>
<path fill="#19509F" d="M10,171.602h500v81.912H10V171.602z"/>
<path fill="#FFF" d="M211.292,233.773h-11.796v-42.174h14.461c14.648,0,22.513,9.613,22.513,20.549
	C236.469,223.455,228.16,233.773,211.292,233.773 M212.5,198.737h-4.762v27.642h4.061c9.826,0,16.302-5.504,16.302-13.916
	C228.1,203.994,222.196,198.737,212.5,198.737 M248.777,233.773v-42.174h8.242v34.452h17.629v7.721h-25.872 M309.66,233.773
	l-11.668-16.816h-3.813v16.816h-8.242v-42.174h13.707c8.695,0,14.393,4.55,14.393,12.325c0,5.186-2.922,9.294-7.994,11.136
	l13.32,18.713H309.66 M298.883,198.737h-4.703v11.068h3.949c4.807,0,7.668-2.149,7.668-5.812
	C305.797,200.701,303.191,198.737,298.883,198.737"/>
</svg>
