<?xml version="1.0" encoding="utf-8"?>
<!-- Generator: Adobe Illustrator 23.0.1, SVG Export Plug-In . SVG Version: 6.00 Build 0)  -->
<svg version="1.1" id="svg2" xmlns:svg="http://www.w3.org/2000/svg"
	 xmlns="http://www.w3.org/2000/svg" xmlns:xlink="http://www.w3.org/1999/xlink" x="0px" y="0px" viewBox="0 0 833.3 500"
	 enable-background="new 0 0 833.3 500" xml:space="preserve">
<g>
	<polygon fill="#FFFFFF" points="166.7,250 416.7,100 666.7,250 416.7,400 	"/>
	<path fill="#E8112D" d="M166.7,250l250-150l250,150l-250,150L166.7,250z M416.7,0L0,250l416.7,250l416.7-250L416.7,0z"/>
	<rect x="218.8" y="171.9" fill="#0038A8" width="395.8" height="156.3"/>
	<path fill="#FFFFFF" d="M536,259.7c0-10.3,3.6-20.6,15.5-20.6c12,0,15.6,10.3,15.6,20.6c0,10.2-3.6,20.5-15.6,20.5
		C539.6,280.1,536,269.8,536,259.7 M518.3,259.7c0,20.3,13,33.7,33.1,33.7c20.2,0,33.2-13.4,33.2-33.7c0-20.5-13-33.9-33.2-33.9
		C531.4,225.8,518.3,239.2,518.3,259.7 M474.8,291.7h17.6v-28.9c0-11.3,4.5-20.6,17.4-20.6c2.1,0,4.7,0.2,6.3,0.6v-16.4
		c-1.1-0.4-2.6-0.6-3.8-0.6c-8.6,0-17.2,5.6-20.5,13.6l-0.3-11.9h-16.7V291.7z M450.9,208.3h-17.6v19.2h-10.7v11.8h10.7v37.8
		c0,12.8,9.4,15.2,20.2,15.2c3.5,0,7.3-0.1,10.3-0.6V278c-1.9,0.4-3.6,0.5-5.4,0.5c-6,0-7.4-1.5-7.4-7.4v-31.7h12.9v-11.8h-12.9
		V208.3z M371.8,252.7c0.2-5,3.5-13.6,14.6-13.6c8.6,0,12.4,4.7,14,13.6H371.8z M418.1,263.9c1.2-19.7-9.3-38.1-31.1-38.1
		c-19.5,0-32.7,14.6-32.7,33.9c0,19.8,12.5,33.7,32.7,33.7c14.5,0,25.1-6.5,30-21.6h-15.5c-1.1,4-6.8,8.3-13.9,8.3
		c-9.8,0-15.3-5.1-15.7-16.2H418.1z M250,291.7h18.2v-62.1l22,62.1h15l21.7-62.8l0.3,62.8h18.2v-88.5H318L298.4,264l-21-60.9H250
		V291.7z"/>
</g>
</svg>
