<?xml version="1.0" encoding="UTF-8" standalone="no"?>
<!-- Created with Inkscape (http://www.inkscape.org/) -->

<svg
   width="24mm"
   height="24mm"
   viewBox="0 0 24 24"
   version="1.1"
   id="svg1"
   inkscape:version="1.4 (e7c3feb100, 2024-10-09)"
   sodipodi:docname="nyc-mta2.svg"
   xmlns:inkscape="http://www.inkscape.org/namespaces/inkscape"
   xmlns:sodipodi="http://sodipodi.sourceforge.net/DTD/sodipodi-0.dtd"
   xmlns="http://www.w3.org/2000/svg"
   xmlns:svg="http://www.w3.org/2000/svg">
  <sodipodi:namedview
     id="namedview1"
     pagecolor="#ffffff"
     bordercolor="#000000"
     borderopacity="0.25"
     inkscape:showpageshadow="2"
     inkscape:pageopacity="0.0"
     inkscape:pagecheckerboard="0"
     inkscape:deskcolor="#d1d1d1"
     inkscape:document-units="mm"
     inkscape:zoom="1.0333895"
     inkscape:cx="396.75263"
     inkscape:cy="561.25982"
     inkscape:window-width="2560"
     inkscape:window-height="1371"
     inkscape:window-x="0"
     inkscape:window-y="0"
     inkscape:window-maximized="1"
     inkscape:current-layer="layer1" />
  <defs
     id="defs1" />
  <g
     inkscape:label="Lager 1"
     inkscape:groupmode="layer"
     id="layer1">
    <path
       d="m 15.070908,11.065588 -1.036615,-0.08802 v 5.465787 l -1.543013,0.270286 -0.0031,-5.870699 -1.312079,-0.115984 V 8.5739878 l 3.894814,0.677269 z m 2.938974,4.685996 -0.915452,0.157408 -0.107701,-0.797396 -0.892669,0.115985 -0.110807,0.877135 -1.179525,0.208152 1.167098,-6.8928152 1.110141,0.191582 z m -1.186774,-1.985205 -0.244397,-2.105333 h -0.05385 l -0.248539,2.137435 z m -5.101263,8.394404 c 5.279382,0 9.558396,-4.28005 9.558396,-9.559431 0,-5.2793832 -4.279014,-9.5583962 -9.558396,-9.5583962 -3.3107474,0 -6.2279744,1.682816 -7.9428934,4.240697 l 2.649012,0.463939 0.729048,5.5475982 c 0.0031,-0.0093 0.05281,-0.0031 0.05281,-0.0031 l 0.798432,-5.2690272 2.6521184,0.461869 v 8.5518112 l -1.6734964,0.291 v -3.674236 c 0,0 0.06317,-1.5834 0.02589,-1.852651 0,0 -0.07249,0 -0.07353,-0.0052 l -0.999334,5.718467 -1.661069,0.29203 -1.221983,-6.15962 -0.07353,-0.0062 c -0.02693,0.223686 0.08906,2.157112 0.08906,2.157112 v 4.218948 l -1.092536,0.19158 c 1.736666,2.3953 4.557584,3.95281 7.7419904,3.95281"
       style="fill:#000099;stroke-width:1.03558"
       id="path18" />
  </g>
</svg>
