<?xml version="1.0" encoding="UTF-8" standalone="no"?>
<!-- Created with Inkscape (http://www.inkscape.org/) -->

<svg
   width="37.165756mm"
   height="29.898973mm"
   viewBox="0 0 37.165756 29.898973"
   version="1.1"
   id="svg1"
   inkscape:version="1.4 (e7c3feb100, 2024-10-09)"
   sodipodi:docname="santiago-metro.svg"
   xmlns:inkscape="http://www.inkscape.org/namespaces/inkscape"
   xmlns:sodipodi="http://sodipodi.sourceforge.net/DTD/sodipodi-0.dtd"
   xmlns="http://www.w3.org/2000/svg"
   xmlns:svg="http://www.w3.org/2000/svg">
  <sodipodi:namedview
     id="namedview1"
     pagecolor="#ffffff"
     bordercolor="#000000"
     borderopacity="0.25"
     inkscape:showpageshadow="2"
     inkscape:pageopacity="0.0"
     inkscape:pagecheckerboard="0"
     inkscape:deskcolor="#d1d1d1"
     inkscape:document-units="mm"
     inkscape:zoom="1.0333895"
     inkscape:cx="394.81727"
     inkscape:cy="560.29215"
     inkscape:window-width="2560"
     inkscape:window-height="1371"
     inkscape:window-x="0"
     inkscape:window-y="0"
     inkscape:window-maximized="1"
     inkscape:current-layer="layer1" />
  <defs
     id="defs1" />
  <g
     inkscape:label="Lager 1"
     inkscape:groupmode="layer"
     id="layer1"
     transform="translate(-0.63943966,-0.19152366)">
    <path
       fill="#d00a2c"
       d="m 23.769315,15.09074 -4.611423,8.346017 -4.615921,-8.346017 4.616185,-8.3460163 z m 9.295341,0 -4.614068,8.346017 -4.616715,-8.346017 4.616715,-8.3460163 z m -18.587244,0 L 9.8667833,23.436757 5.2500688,15.09074 9.8667833,6.7447237 Z M 19.223244,0.19152366 c 10.264246,0 18.581952,6.69263504 18.581952,14.94975234 0,8.256323 -8.317706,14.949222 -18.581952,14.949222 -9.2614753,0 -16.9452393,-5.455708 -18.34964834,-12.589668 -0.142346,-0.724165 -0.234156,-1.547019 -0.234156,-2.359554 0,-6.9455773 5.79199374,-12.3645083 12.81773934,-14.21526934 1.83806,-0.486304 3.753379,-0.734483 5.766065,-0.734483 M 2.0343227,15.709865 c 0.347398,6.763544 7.0609356,12.244123 15.5712583,12.864836 0.717286,0.0508 1.437217,0.068 2.160588,0.04736 8.448939,-0.232833 15.336837,-5.422371 16.310504,-11.886406 0.109802,-0.728927 0.163248,-1.477433 0.14605,-2.231496 -0.0299,-1.417902 -0.307181,-2.783417 -0.897996,-4.026164 -2.181489,-4.6759823 -7.591425,-8.1417593 -14.117373,-8.7365423 -0.852752,-0.08281 -1.715294,-0.109802 -2.582598,-0.0889 -1.171839,0.0291 -2.310871,0.148696 -3.411008,0.350308 -5.2906084,0.883179 -12.1621021,4.929452 -13.0876143,11.6728883 -0.102923,0.705908 -0.09393,1.525323 -0.09181,2.034116"
       id="path1"
       style="stroke-width:0.264583" />
  </g>
</svg>
