<?xml version="1.0" encoding="utf-8"?>
<!-- Generator: Adobe Illustrator 13.0.2, SVG Export Plug-In . SVG Version: 6.00 Build 14948)  -->
<!DOCTYPE svg PUBLIC "-//W3C//DTD SVG 1.0//EN" "http://www.w3.org/TR/2001/REC-SVG-20010904/DTD/svg10.dtd">
<svg version="1.0" id="svg8284" xmlns:svg="http://www.w3.org/2000/svg"
	 xmlns="http://www.w3.org/2000/svg" xmlns:xlink="http://www.w3.org/1999/xlink" x="0px" y="0px" width="500px" height="500px"
	 viewBox="0 0 500 500" enable-background="new 0 0 500 500" xml:space="preserve">
<g>
	<rect x="53.167" y="14.5" fill="#FFFFFF" width="393.333" height="340.335"/>
	<path id="path2570" fill="#1F4FA3" d="M12.362,464.539h21.416c0,3.869,1.225,7.132,3.06,9.782c1.836,2.443,4.487,4.28,7.548,5.502
		c3.059,1.222,6.526,1.834,10.198,1.834c15.297,0,23.252-4.486,23.455-13.047c0-3.054-0.814-5.296-2.446-7.129
		c-1.633-1.635-3.467-2.854-5.508-3.464c-2.244-0.816-5.913-1.836-11.217-3.262c-4.488-1.02-7.75-1.833-10.198-2.242
		c-7.139-1.43-13.258-3.262-18.154-5.299c-4.895-2.242-8.77-5.298-11.83-9.781c-3.059-4.279-4.486-9.987-4.486-16.916
		c0.204-6.522,1.834-12.024,4.894-16.915c3.264-4.893,7.751-8.562,13.666-11.21c5.915-2.648,13.258-3.872,21.621-3.872
		c7.75,0,14.279,1.02,19.785,3.058c5.303,2.037,9.789,4.891,12.849,8.151c3.264,3.263,5.508,6.929,7.14,11.006
		c1.428,3.873,2.244,7.948,2.447,11.82H75.184c-1.02-10.394-8.363-15.693-22.232-15.693c-5.101,0.205-9.383,1.222-12.647,3.058
		c-3.468,1.833-5.303,4.892-5.711,8.967c0,5.504,2.856,9.171,8.566,11.006c5.304,1.222,10.403,2.444,15.094,3.668
		c4.692,1.017,8.158,2.038,10.403,2.648c7.75,1.836,13.665,3.873,18.152,5.911c4.283,2.242,7.547,5.299,9.789,8.765
		c2.245,3.667,3.264,8.556,3.264,14.469c0,7.336-1.632,13.45-4.895,18.138c-3.264,4.688-7.342,8.153-11.83,10.596
		c-4.692,2.447-9.18,3.874-13.462,4.689C65.598,499.592,61.925,500,59.069,500C28.882,499.796,13.177,487.771,12.362,464.539
		L12.362,464.539z"/>
	<path id="path2572" fill="#1F4FA3" d="M116.383,496.534V390.762h78.119v18.341h-56.089v23.031h51.601v18.343h-51.601v27.716h58.537
		v18.342H116.383L116.383,496.534z"/>
	<path id="path2574" fill="#1F4FA3" d="M336.054,496.534v-87.432h-32.427v-18.341h85.663v18.341h-31.412v87.432H336.054
		L336.054,496.534z"/>
	<path id="path2578" fill="#F14728" d="M441.775,14.654H340.441L180.889,127.229h148.664l115.779,115.24L333.556,354.82h108.22
		c25.556,0,44.222-25.312,44.222-43.296V58.173C485.997,39.965,467.331,14.654,441.775,14.654L441.775,14.654z"/>
	<path id="path2580" fill="#1F4FA3" d="M58.666,354.82h101.112l159.553-112.129H170.888L54.666,127.229L167.11,14.654H58.666
		c-25.778,0-44,25.311-44,43.741v253.351C14.667,329.509,32.888,354.82,58.666,354.82L58.666,354.82z"/>
	<path id="path2582" fill="#F14728" d="M206.444,137.886H192.22l87.111,87.037c4.001,3.335,7.11,7.33,14,6.887h14.89l-87.556-86.819
		C216.666,140.55,213.776,137.886,206.444,137.886L206.444,137.886z"/>
	<path id="path9110" fill="#1F4FA3" d="M214.706,390.817v33.926v71.719h21.99v-39.023h25.509c12.034,0,20.407-3.145,25.508-9.668
		c4.895-5.908,7.361-13.657,7.565-23.027v-1.406c0-4.483-0.681-8.783-2.111-12.656c-1.224-3.873-3.124-7.311-5.981-10.371
		c-2.65-3.054-6.152-5.196-10.027-7.031c-4.078-1.629-8.594-2.461-13.898-2.461H214.706z M236.696,409.099h17.945
		c7.954,0,13.061,1.393,15.305,4.043c2.243,2.648,3.519,6.507,3.519,11.602c0,3.058-0.442,5.696-1.056,7.734
		c-0.611,2.241-1.95,4.198-4.398,5.625c-2.445,1.427-6.039,2.109-10.73,2.109h-20.583v-15.469V409.099z"/>
	<path id="path2588" fill="#1F4FA3" d="M421.59,390.817l-16.009,45.176l-21.462,60.469h23.046l7.564-21.797h38.879l6.685,21.797
		h24.102l-21.463-60.469l-16.009-45.176H421.59z M434.081,414.548l6.685,21.445l6.686,21.445h-26.916l6.509-21.445L434.081,414.548z
		"/>
</g>
</svg>
