<?xml version="1.0" encoding="UTF-8" standalone="no"?>
<svg
   xmlns:dc="http://purl.org/dc/elements/1.1/"
   xmlns:cc="http://creativecommons.org/ns#"
   xmlns:rdf="http://www.w3.org/1999/02/22-rdf-syntax-ns#"
   xmlns:svg="http://www.w3.org/2000/svg"
   xmlns="http://www.w3.org/2000/svg"
   xmlns:sodipodi="http://sodipodi.sourceforge.net/DTD/sodipodi-0.dtd"
   xmlns:inkscape="http://www.inkscape.org/namespaces/inkscape"
   width="450"
   height="450"
   viewBox="0 0 512 512"
   version="1.0"
   id="svg2"
   sodipodi:version="0.32"
   inkscape:version="0.46"
   sodipodi:docname="SeoulMetro512x512_V2.svg"
   inkscape:output_extension="org.inkscape.output.svg.inkscape">
  <metadata
     id="metadata48">
    <rdf:RDF>
      <cc:Work
         rdf:about="">
        <dc:format>image/svg+xml</dc:format>
        <dc:type
           rdf:resource="http://purl.org/dc/dcmitype/StillImage" />
      </cc:Work>
    </rdf:RDF>
  </metadata>
  <defs
     id="defs46">
    <inkscape:perspective
       sodipodi:type="inkscape:persp3d"
       inkscape:vp_x="0 : 320 : 1"
       inkscape:vp_y="0 : 1000 : 0"
       inkscape:vp_z="640 : 320 : 1"
       inkscape:persp3d-origin="320 : 213.33333 : 1"
       id="perspective50" />
  </defs>
  <sodipodi:namedview
     inkscape:window-height="1018"
     inkscape:window-width="1920"
     inkscape:pageshadow="2"
     inkscape:pageopacity="0.0"
     guidetolerance="10.0"
     gridtolerance="10.0"
     objecttolerance="10.0"
     borderopacity="1.0"
     bordercolor="#666666"
     pagecolor="#ffffff"
     id="base"
     showgrid="false"
     inkscape:zoom="0.70710678"
     inkscape:cx="274.51163"
     inkscape:cy="254.02717"
     inkscape:window-x="-8"
     inkscape:window-y="-8"
     inkscape:current-layer="svg2" />
  <g
     id="#ffffffff">
    <path
       d="M 413.35,0 L 512,0 L 512,91.77 C 510.52,85.32 509.46,78.76 507.54,72.41 C 498.09,40.6 472.01,14.53 440.33,4.77 C 431.61,1.91 422.43,1 413.35,0 z"
       id="path7"
       style="opacity:1;fill:#ffffff" />
    <path
       d="M 0,411.25 C 1.28,421.39 1.9,431.74 5.47,441.42 C 15.63,472.99 42.17,498.71 74.1,507.73 C 80.26,509.56 86.68,510.28 92.88,512 L 0,512 L 0,411.25 z"
       id="path15"
       style="opacity:1;fill:#ffffff" />
    <path
       d="M 503.52,450.48 C 507.96,440.9 509.87,430.47 512,420.21 L 512,512 L 419.07,512 C 423.41,510.86 427.85,510.23 432.23,509.26 C 463.58,502.53 490.83,479.88 503.52,450.48 z"
       id="path17"
       style="opacity:1;fill:#ffffff" />
  </g>
  <g
     id="#fef104ff"
     transform="matrix(0.9995969,0,0,0.9997067,0,3.2719048e-3)">
    <path
       d="M 99.62,-2.8421709e-14 L 413.35,-2.8421709e-14 C 422.57142,0.010050509 503.41921,-0.019898998 512.13921,0.011673902 C 512.19793,35.294675 512.07563,83.340101 512,91.77 L 512,420.21 C 512.47,444.87 511.98,506.955 512.055,512.06 C 507.575,512.105 425.81,512.26 419.07,512 L 92.88,512 C 86.48,512.03 1.2742862,512.02266 0.003125,512.00312 L 0,100.75 C 0.070050509,92.621472 0.0257287,0.0026699087 8.1154688e-05,0.001501561 C -0.016308846,0.00075493127 92.61,0.74 99.62,-2.8421709e-14"
       id="path20"
       sodipodi:nodetypes="ccccccccccsc"
       style="opacity:1;fill:#fef104" />
  </g>
  <g
     transform="matrix(1.4222222,0,0,1.4222222,-108.78577,-108.82242)"
     id="#000000ff">
    <path
       d="M 202,121.02 C 203.95,119.39 206.39,118.24 208.99,118.39 C 242.66,118.42 276.34,118.39 310.02,118.41 C 313.34,118.29 316.15,120.42 318.5,122.53 C 323.56,127.24 327.45,133.04 330.96,138.95 C 344.92,163.5 350.61,191.76 352.97,219.63 C 354.1,233.65 353.34,247.75 353.7,261.79 C 353.86,270.88 353.79,279.97 353.78,289.05 C 353.74,298.1 350.48,307.47 343.54,313.52 C 336.08,320.04 326,322.8 316.24,322.75 C 329.51,342.69 343.48,362.18 356.97,381.97 C 358.1,383.5 357.91,385.48 358.2,387.28 C 351.8,387.43 345.4,387.5 339,387.33 C 337.53,387.48 336.73,386.04 335.9,385.1 C 332.6,380.71 329.8,375.97 326.52,371.56 C 325.77,370.33 324.52,369.6 323.06,369.83 C 294.04,369.82 265.02,369.83 236,369.83 C 221.76,369.97 207.5,369.54 193.27,370.04 C 189.04,375.71 185.42,381.81 181.02,387.36 C 174.18,387.41 167.33,387.47 160.49,387.3 C 160.57,385.4 160.44,383.33 161.72,381.77 C 175.24,362.06 189.11,342.56 202.48,322.75 C 190.06,322.94 176.68,318.09 169.8,307.23 C 166.54,302.14 165.02,296.06 165.18,290.04 C 165.27,278.99 165.08,267.92 165.3,256.87 C 165.6,244.05 164.99,231.21 165.76,218.41 C 168.3,189.95 174.32,160.98 189.3,136.27 C 192.78,130.63 196.84,125.24 202,121.02 M 207.14,136.13 C 200.44,142.88 195.56,151.21 191.71,159.85 C 184.08,177.65 180.55,197.15 181.24,216.49 C 181.4,221.01 181.09,225.54 181.51,230.06 C 182.52,236.99 188.99,242.78 196.07,242.66 C 238.36,242.65 280.65,242.67 322.94,242.66 C 328.51,242.65 333.75,238.88 335.97,233.84 C 338.06,229.67 337.53,224.93 337.6,220.43 C 338.4,196.46 334.16,171.77 322.37,150.66 C 318.86,144.7 314.82,138.93 309.56,134.39 C 307.17,132.4 304.31,130.49 301.06,130.69 C 273.36,130.71 245.65,130.72 217.95,130.68 C 213.63,130.4 210.09,133.37 207.14,136.13 M 199.41,270.67 C 192.48,272.47 187.51,279.88 188.82,286.98 C 189.8,292.74 194.46,297.55 200.18,298.77 C 208.88,300.92 218.23,292.94 217.48,283.99 C 217.39,275.17 207.86,268.12 199.41,270.67 M 312.4,270.55 C 305.98,272.05 300.67,278.26 301.2,285.01 C 300.99,292.09 307.16,298.16 313.97,299.04 C 322.32,300.11 330.69,292.49 329.87,283.98 C 329.92,275.38 320.68,268.36 312.4,270.55 M 221.92,322.62 C 221.99,325.86 221.72,329.14 220.08,332.01 C 246.31,332.24 272.54,332.13 298.77,332.07 C 296.96,329.3 296.35,326.06 296.72,322.8 C 294.82,322.56 292.91,322.45 291.01,322.5 C 267.98,322.63 244.95,322.38 221.92,322.62 M 214.41,339.33 C 210.29,345.5 205.83,351.44 201.88,357.73 C 236.92,357.8 271.96,357.74 306.99,357.76 C 310.26,357.78 313.54,357.88 316.79,357.5 C 312.47,351.36 308.33,345.09 303.85,339.06 C 279.91,338.52 255.94,339 232,338.83 C 226.13,339 220.22,338.38 214.41,339.33 z"
       id="path41"
       style="opacity:1;fill:#000000" />
    <path
       d="M 227.48,163.44 C 232.49,163.51 237.52,163.11 242.52,163.59 C 249.22,169.94 253.87,178.19 260.63,184.52 C 265.44,178.69 270.21,172.82 274.99,166.96 C 276.05,165.74 277.08,164.44 278.45,163.56 C 283.4,163.13 288.38,163.49 293.34,163.46 C 293.3,181.38 293.25,199.29 293.35,217.2 C 293.37,217.81 293.41,219.01 293.43,219.62 C 287.75,219.65 282.08,219.63 276.41,219.64 C 276.42,218.92 276.45,217.49 276.46,216.77 C 276.41,206.96 276.72,197.13 276.31,187.32 C 270.27,193.06 265.97,200.32 260.05,206.17 C 254.37,200.09 249.88,192.97 243.93,187.13 C 243.51,197.4 243.73,207.69 243.84,217.97 C 243.74,218.4 243.53,219.24 243.42,219.66 C 238.08,219.6 232.74,219.65 227.4,219.64 C 227.45,217.5 227.45,215.36 227.47,213.21 C 227.55,196.62 227.51,180.03 227.48,163.44 z"
       id="path43"
       style="opacity:1;fill:#666666" />
  </g>
</svg>
