<svg viewBox="0 0 533.33331 533.33331" xmlns="http://www.w3.org/2000/svg">
  <g transform="matrix(0.1333329975605011, 0, 0, -0.1333329975605011, 0.0006600000196996803, 533.3326416015624)" id="g12">
    <title>TfNSW M</title>
    <path id="path14" style="fill-opacity: 1; fill-rule: nonzero; stroke: none; fill: rgb(22, 131, 136);" d="m 1999.99,157.238 c -1016.177,0 -1842.885,826.684 -1842.885,1842.822 0,1016.16 826.708,1842.7 1842.885,1842.7 1016.06,0 1842.9,-826.54 1842.9,-1842.7 0,-1016.138 -826.84,-1842.822 -1842.9,-1842.822">
      <title>Background</title>
    </path>
    <path id="path16" style="fill:#ffffff;fill-opacity:1;fill-rule:nonzero;stroke:none" d="M 1999.99,4000 C 897.125,4000 0,3102.77 0,2000.06 0,897.238 897.125,0 1999.99,0 3102.88,0 4000,897.238 4000,2000.06 4000,3102.77 3102.88,4000 1999.99,4000 Z m 0,-314.32 c 929.52,0 1685.66,-756.26 1685.66,-1685.62 0,-929.6 -756.14,-1685.599 -1685.66,-1685.599 -929.51,0 -1685.654,755.999 -1685.654,1685.599 0,929.36 756.144,1685.62 1685.654,1685.62">
      <title>Ring</title>
    </path>
    <path id="path18" style="fill:#ffffff;fill-opacity:1;fill-rule:nonzero;stroke:none" d="M 2632.11 1001.395 C 2613.04 1001.395 2596.69 1015.015 2596.69 1039.535 L 2596.69 2241.085 C 2596.69 2360.975 2613.04 2510.815 2621.21 2598.005 C 2615.77 2598.005 2618.48 2598.005 2613.04 2598.005 L 2174.38 1034.085 C 2168.92 1017.735 2158.03 1001.395 2133.5 1001.395 L 1820.17 1001.395 C 1795.65 1001.395 1787.47 1015.015 1782.03 1031.365 L 1376.06 2598.005 C 1373.34 2603.465 1373.34 2608.905 1370.61 2614.355 C 1378.79 2513.545 1395.14 2390.935 1395.14 2246.535 L 1395.14 1039.535 C 1395.14 1015.015 1376.06 1001.395 1359.72 1001.395 L 1081.81 1001.395 C 1062.73 1001.395 1046.39 1017.735 1046.39 1039.535 L 1046.39 2954.935 C 1046.39 2974.005 1057.28 2995.805 1084.53 2995.805 L 1553.16 2995.805 C 1572.24 2995.805 1585.86 2987.635 1594.03 2965.825 L 1874.67 1979.525 C 1929.16 1786.075 1978.2 1543.585 1997.28 1350.145 C 2013.62 1543.585 2070.84 1780.625 2130.78 1984.975 C 2217.96 2262.885 2296.99 2538.065 2381.45 2815.975 C 2395.06 2865.025 2411.41 2916.795 2425.04 2965.825 C 2441.39 3012.155 2553.09 2995.805 2618.48 2995.805 L 2915.46 2995.805 C 2942.72 2995.805 2953.61 2979.455 2953.61 2960.385 L 2953.61 1039.535 C 2953.61 1015.015 2937.26 1001.395 2920.92 1001.395 L 2632.11 1001.395">
      <title>M</title>
    </path>
  </g>
</svg>