<svg viewBox="0 0 533.33331 533.33331" xmlns="http://www.w3.org/2000/svg">
  <g transform="matrix(0.1333329975605011, 0, 0, -0.1333329975605011, 0.0006620000349357724, 533.3326416015624)" id="g-2">
    <title>TfNSW T</title>
    <path id="path-4" style="fill-opacity: 1; fill-rule: nonzero; stroke: none; fill: rgb(236, 102, 6);" d="m 1999.99,157.238 c -1016.177,0 -1842.885,826.684 -1842.885,1842.822 0,1016.16 826.708,1842.7 1842.885,1842.7 1016.06,0 1842.9,-826.54 1842.9,-1842.7 0,-1016.138 -826.84,-1842.822 -1842.9,-1842.822">
      <title>Background</title>
    </path>
    <path id="path-5" style="fill:#ffffff;fill-opacity:1;fill-rule:nonzero;stroke:none" d="M 1999.99,4000 C 897.125,4000 0,3102.77 0,2000.06 0,897.238 897.125,0 1999.99,0 3102.88,0 4000,897.238 4000,2000.06 4000,3102.77 3102.88,4000 1999.99,4000 Z m 0,-314.32 c 929.52,0 1685.66,-756.26 1685.66,-1685.62 0,-929.6 -756.14,-1685.599 -1685.66,-1685.599 -929.51,0 -1685.654,755.999 -1685.654,1685.599 0,929.36 756.144,1685.62 1685.654,1685.62">
      <title>Ring</title>
    </path>
    <path id="path18" style="fill:#ffffff;fill-opacity:1;fill-rule:nonzero;stroke:none" d="M 1830.585 833.414 C 1813.552 833.414 1793.58 850.484 1793.58 873.232 L 1793.58 2558.179 L 1244.353 2558.179 C 1218.726 2558.179 1207.363 2583.814 1207.363 2600.861 L 1207.363 2876.9 C 1207.363 2894.03 1218.726 2916.747 1244.353 2916.747 L 2755.675 2916.747 C 2781.235 2916.747 2792.687 2894.03 2792.687 2876.9 L 2792.687 2600.861 C 2792.687 2583.814 2781.235 2558.179 2755.675 2558.179 L 2206.388 2558.179 L 2206.388 873.232 C 2206.388 850.484 2189.243 833.414 2166.473 833.414 L 1830.585 833.414">
      <title>T</title>
    </path>
  </g>
</svg>