<?xml version="1.0" encoding="UTF-8" standalone="no"?>
<svg
   xmlns:dc="http://purl.org/dc/elements/1.1/"
   xmlns:cc="http://creativecommons.org/ns#"
   xmlns:rdf="http://www.w3.org/1999/02/22-rdf-syntax-ns#"
   xmlns:svg="http://www.w3.org/2000/svg"
   xmlns="http://www.w3.org/2000/svg"
   xmlns:sodipodi="http://sodipodi.sourceforge.net/DTD/sodipodi-0.dtd"
   xmlns:inkscape="http://www.inkscape.org/namespaces/inkscape"
   width="210.93697"
   height="173.88628"
   id="svg2"
   version="1.1"
   inkscape:version="0.91 r13725"
   sodipodi:docname="Metro_Tbilisi_logo.svg">
  <metadata
     id="metadata15">
    <rdf:RDF>
      <cc:Work
         rdf:about="">
        <dc:format>image/svg+xml</dc:format>
        <dc:type
           rdf:resource="http://purl.org/dc/dcmitype/StillImage" />
        <dc:title></dc:title>
      </cc:Work>
    </rdf:RDF>
  </metadata>
  <defs
     id="defs13" />
  <sodipodi:namedview
     pagecolor="#ffffff"
     bordercolor="#666666"
     borderopacity="1"
     objecttolerance="10"
     gridtolerance="10"
     guidetolerance="10"
     inkscape:pageopacity="0"
     inkscape:pageshadow="2"
     inkscape:window-width="1366"
     inkscape:window-height="715"
     id="namedview11"
     showgrid="false"
     showguides="false"
     inkscape:guide-bbox="true"
     inkscape:snap-global="false"
     inkscape:snap-bbox="true"
     inkscape:bbox-paths="true"
     inkscape:bbox-nodes="true"
     inkscape:snap-bbox-edge-midpoints="true"
     inkscape:snap-bbox-midpoints="true"
     inkscape:snap-object-midpoints="true"
     inkscape:snap-center="true"
     inkscape:snap-page="true"
     inkscape:snap-text-baseline="true"
     inkscape:object-paths="true"
     inkscape:snap-intersection-paths="true"
     inkscape:object-nodes="true"
     inkscape:snap-smooth-nodes="true"
     inkscape:snap-midpoints="true"
     fit-margin-top="0"
     fit-margin-left="0"
     fit-margin-right="0"
     fit-margin-bottom="0"
     inkscape:zoom="1"
     inkscape:cx="193.11576"
     inkscape:cy="37.934048"
     inkscape:window-x="-8"
     inkscape:window-y="-8"
     inkscape:window-maximized="1"
     inkscape:current-layer="svg2">
    <sodipodi:guide
       position="182.72591,-58.661858"
       orientation="0,1"
       id="guide4165" />
  </sodipodi:namedview>
  <linearGradient
     x1="87.101639"
     y1="121.69753"
     x2="87.260849"
     y2="1.2385538"
     id="l1"
     gradientUnits="userSpaceOnUse">
    <stop
       style="stop-color:#e92203;stop-opacity:1"
       offset="0"
       id="stop5" />
    <stop
       style="stop-color:#ff0000;stop-opacity:0.64628822"
       offset="1"
       id="stop7" />
  </linearGradient>
  <g
     id="g4183"
     transform="translate(448.07337,99.874405)">
    <path
       sodipodi:nodetypes="cssscc"
       inkscape:connector-curvature="0"
       id="path4156"
       d="M -426.06116,66.9128 C -437.77927,50.33631 -440.9743,29.955058 -440.9743,7.9290416 c 0,-55.6174926 44.04149,-100.7043766 98.36941,-100.7043756 54.32792,0 98.36941,45.086884 98.36941,100.7043756 0,22.0280674 -3.65863,42.4064384 -15.37872,58.9837584 z"
       style="opacity:1;fill:#ffffff;fill-opacity:1;fill-rule:nonzero;stroke:#e72400;stroke-width:14.1981411;stroke-linecap:round;stroke-linejoin:round;stroke-miterlimit:4;stroke-dasharray:none;stroke-dashoffset:0;stroke-opacity:1" />
    <path
       inkscape:connector-curvature="0"
       id="path9"
       d="m -421.11956,41.35734 -0.10675,-15.161727 c 1.48911,0 8.88368,0 8.77151,0 12.19717,-30.9291394 35.63606,-93.444977 35.82525,-93.538305 -0.25307,0.283692 35.05011,60.8856186 34.92021,60.8182556 -0.12005,-0.0513 32.21732,-60.9009066 32.22502,-60.9620766 0.0964,0.0067 35.28962,93.879361 35.31393,93.682126 1.10329,0.311147 3.93038,0 10.11162,0 -0.13537,0.180492 0.0753,14.981227 0.0753,15.161727 l -39.17053,0.26664 c 0.165,-0.3091 -0.24282,-14.429297 -0.34722,-14.607949 0.13538,0 5.05786,-0.143562 5.05786,-0.143562 0.11145,0.04555 -14.48911,-45.708004 -14.48284,-45.709863 -12.51295,18.36589361 -28.3243,60.223484 -27.86929,60.194734 0.0556,0.27857 -28.12589,-58.843241 -28.32053,-58.914895 0.1613,0.03829 -18.71118,43.591532 -18.56646,43.753168 0,0 4.63129,0 4.63129,0 l 0,15.161727 -38.06831,0 z"
       style="fill:#e72400;fill-opacity:1" />
  </g>
</svg>
