<?xml version="1.0" encoding="UTF-8"?>
<svg width="400" height="400" version="1.1" xmlns="http://www.w3.org/2000/svg">
	<circle cx="200" cy="200" r="200" fill="#0081c9"/>
	<path d="m172.75 364.78c-36.647-11.257-75.155-30.988-92.265-67.24-15.551-31.99-11.139-68.672-12.254-103.06-0.062434-41.015-0.056895-82.03-0.05848-123.05 29.692-0.03344 59.383-0.06687 89.075-0.10031 0.14528 57.408-0.29178 114.84 0.2208 172.23 1.7868 25.997 30.641 45.043 55.255 36.466 19.687-5.6518 32.159-26.376 30.044-46.393 1e-5 -54.101 1e-5 -108.2 2e-5 -162.3 29.692 0.03344 59.383 0.06687 89.075 0.10031-0.35735 58.909 0.8038 117.85-0.9706 176.74-0.44176 32.821-14.409 66.065-41.181 85.947-22.415 16.189-48.302 28.998-75.819 33.238-13.676 1.1415-27.72 0.49602-41.122-2.5722z" fill="#fff"/>
</svg>
