<?xml version="1.0" encoding="UTF-8" standalone="no"?>
<!-- Creator: CorelDRAW 2020 (64-Bit) -->

<svg
   xml:space="preserve"
   width="179mm"
   height="126.5mm"
   version="1.1"
   style="shape-rendering:geometricPrecision; text-rendering:geometricPrecision; image-rendering:optimizeQuality; fill-rule:evenodd; clip-rule:evenodd"
   viewBox="0 0 17900 12650"
   id="svg842"
   sodipodi:docname="Yerevan_Metro.svg"
   inkscape:version="1.1 (c68e22c387, 2021-05-23)"
   xmlns:inkscape="http://www.inkscape.org/namespaces/inkscape"
   xmlns:sodipodi="http://sodipodi.sourceforge.net/DTD/sodipodi-0.dtd"
   xmlns="http://www.w3.org/2000/svg"
   xmlns:svg="http://www.w3.org/2000/svg"><sodipodi:namedview
   id="namedview844"
   pagecolor="#ffffff"
   bordercolor="#666666"
   borderopacity="1.0"
   inkscape:pageshadow="2"
   inkscape:pageopacity="0.0"
   inkscape:pagecheckerboard="0"
   inkscape:document-units="mm"
   showgrid="false"
   inkscape:zoom="1.2277503"
   inkscape:cx="338.42386"
   inkscape:cy="239.05512"
   inkscape:window-width="1600"
   inkscape:window-height="837"
   inkscape:window-x="-8"
   inkscape:window-y="-8"
   inkscape:window-maximized="1"
   inkscape:current-layer="Слой_x0020_1" />
 <defs
   id="defs837">
  <style
   type="text/css"
   id="style835">
   <![CDATA[
    .fil0 {fill:#2D195F}
   ]]>
  </style>
 </defs>
 <g
   id="Слой_x0020_1"
   inkscape:label="Слой 1">
  <metadata
   id="CorelCorpID_0Corel-Layer" />
  <path
   id="Кривая"
   class="fil0"
   d="M1553.9 3992.59c1699.45,-2321.11 5058.03,-3622.43 7893.39,-3621.19 3409.02,1.4 6142.01,1243.32 8280.62,3915.88l-780.79 1588.81 -4190.74 0.02c-1952.07,4096.76 -3139.74,5155.48 -6763.84,5155.48 -370.75,0 -749.43,7.04 -1127.59,7.04l-1889.49 0.04c949.11,635.37 2556.08,844.92 3515.71,844.92 2934.63,0 6441.89,-1874.74 7435.87,-4876.84l2506.54 0 -290.75 589.64 -2081.87 0c-965.71,2536.91 -4352.08,4683.28 -7569.29,4683.28 -4839.53,0 -8030.27,-4063.3 -4937.77,-8287.08zm4227.42 92.41l3031.08 0 -2455.18 6386.23c3188.41,-18.21 4174.71,-1546.77 6400.34,-6386.25l4136.52 0.02c-1589.21,-2116.35 -4716.83,-3264.67 -7469.47,-3264.67 -2674.07,0 -5728.88,1354.65 -7304.72,3573.09 -1654.04,2328.54 -1425.46,4813.16 855.57,6645.25l2805.86 -6953.67z"
   inkscape:connector-curvature="0" />
 </g>
</svg>
