<?xml version="1.0" encoding="UTF-8" standalone="no"?>
<!DOCTYPE svg PUBLIC "-//W3C//DTD SVG 1.1//EN" "http://www.w3.org/Graphics/SVG/1.1/DTD/svg11.dtd">
<svg width="100%" height="100%" viewBox="0 0 32 32" version="1.1" xmlns="http://www.w3.org/2000/svg" xmlns:xlink="http://www.w3.org/1999/xlink" xml:space="preserve" xmlns:serif="http://www.serif.com/" style="fill-rule:evenodd;clip-rule:evenodd;stroke-linecap:round;stroke-linejoin:round;stroke-miterlimit:1.5;">
    <g id="Layer-1" serif:id="Layer 1">
        <g transform="matrix(1,0,0,1,-0.0715828,1.60927)">
            <g id="rect13802-1-3-2-0" transform="matrix(-2.41933e-17,-0.395107,0.395107,-2.41933e-17,23.5445,16.9995)">
                <path d="M28.398,12.016L19.971,17.966L19.971,6.065L28.398,12.016Z" style="fill:rgb(85,87,83);fill-rule:nonzero;"/>
            </g>
            <g transform="matrix(1.12868,0,0,0.497916,19.5655,1.43571)">
                <path d="M8.237,15.253C8.237,14.62 8.011,14.107 7.732,14.107C7.453,14.107 7.226,14.62 7.226,15.253L7.226,22.084C7.226,22.716 7.453,23.23 7.732,23.23C8.011,23.23 8.237,22.716 8.237,22.084L8.237,15.253Z" style="fill:rgb(85,87,83);"/>
            </g>
        </g>
        <g transform="matrix(1,0,0,-1,-0.0715828,30.3907)">
            <g id="rect13802-1-3-2-01" serif:id="rect13802-1-3-2-0" transform="matrix(-2.41933e-17,-0.395107,0.395107,-2.41933e-17,23.5445,16.9995)">
                <path d="M28.398,12.016L19.971,17.966L19.971,6.065L28.398,12.016Z" style="fill:rgb(85,87,83);fill-rule:nonzero;"/>
            </g>
            <g transform="matrix(1.12868,0,0,0.497916,19.5655,1.43571)">
                <path d="M8.237,15.253C8.237,14.62 8.011,14.107 7.732,14.107C7.453,14.107 7.226,14.62 7.226,15.253L7.226,22.084C7.226,22.716 7.453,23.23 7.732,23.23C8.011,23.23 8.237,22.716 8.237,22.084L8.237,15.253Z" style="fill:rgb(85,87,83);"/>
            </g>
        </g>
        <g transform="matrix(1.49581,0,0,1.31908,-2.01355,-5.35768)">
            <rect x="2.51" y="7.235" width="15.118" height="17.913" style="fill:none;stroke:rgb(85,87,83);stroke-width:0.71px;"/>
        </g>
        <g transform="matrix(1.97336,0,0,1.97336,-8.14454,-14.9401)">
            <circle cx="8.237" cy="11.581" r="1.011" style="fill:rgb(85,87,83);"/>
        </g>
        <g transform="matrix(1.79646,0,0,1.79646,3.501,-11.4274)">
            <circle cx="8.237" cy="11.581" r="1.011" style="fill:rgb(85,87,83);"/>
        </g>
        <g transform="matrix(1.46108,0,0,1.46108,-4.33607,-8.66086)">
            <path d="M9.957,23.134C9.957,23.478 9.677,23.757 9.333,23.757C8.989,23.757 8.71,23.478 8.71,23.134L8.71,18.68L8.327,18.68L8.327,23.134C8.327,23.478 8.048,23.757 7.704,23.757C7.359,23.757 7.08,23.478 7.08,23.134L7.08,13.603L9.957,13.603L9.957,23.134Z" style="fill:rgb(85,87,83);"/>
        </g>
        <g transform="matrix(1.80244,0,0,0.795147,-9.39725,-0.731222)">
            <path d="M8.237,15.253C8.237,14.62 8.011,14.107 7.732,14.107C7.453,14.107 7.226,14.62 7.226,15.253L7.226,22.084C7.226,22.716 7.453,23.23 7.732,23.23C8.011,23.23 8.237,22.716 8.237,22.084L8.237,15.253Z" style="fill:rgb(85,87,83);"/>
        </g>
        <g transform="matrix(1.27267,0,0,0.812131,7.66799,6.98304)">
            <path d="M8.237,14.899C8.237,14.462 8.011,14.107 7.732,14.107C7.453,14.107 7.226,14.462 7.226,14.899L7.226,22.437C7.226,22.875 7.453,23.23 7.732,23.23C8.011,23.23 8.237,22.875 8.237,22.437L8.237,14.899Z" style="fill:rgb(85,87,83);"/>
        </g>
        <g transform="matrix(1.08343,0.20271,-0.129533,0.692321,9.19258,0.780458)">
            <path d="M8.237,14.898C8.237,14.461 8.011,14.107 7.732,14.107C7.453,14.107 7.226,14.461 7.226,14.898L7.226,22.439C7.226,22.875 7.453,23.23 7.732,23.23C8.011,23.23 8.237,22.875 8.237,22.439L8.237,14.898Z" style="fill:rgb(85,87,83);"/>
        </g>
        <g transform="matrix(-1.08343,0.20271,0.129533,0.692321,27.4045,0.780458)">
            <path d="M8.237,14.898C8.237,14.461 8.011,14.107 7.732,14.107C7.453,14.107 7.226,14.461 7.226,14.898L7.226,22.439C7.226,22.875 7.453,23.23 7.732,23.23C8.011,23.23 8.237,22.875 8.237,22.439L8.237,14.898Z" style="fill:rgb(85,87,83);"/>
        </g>
        <g transform="matrix(1.27267,0,0,0.812131,9.24954,6.98304)">
            <path d="M8.237,14.899C8.237,14.462 8.011,14.107 7.732,14.107C7.453,14.107 7.226,14.462 7.226,14.899L7.226,22.437C7.226,22.875 7.453,23.23 7.732,23.23C8.011,23.23 8.237,22.875 8.237,22.437L8.237,14.899Z" style="fill:rgb(85,87,83);"/>
        </g>
        <g transform="matrix(1,0,0,1.36377,0.0712332,-5.62728)">
            <path d="M21.247,19.64L15.207,19.64L16.717,12.72L19.737,12.72L21.247,19.64Z" style="fill:rgb(85,87,83);"/>
        </g>
        <g transform="matrix(1.33455e-16,2.17948,-0.982755,6.01764e-17,26.4564,-5.2634)">
            <path d="M8.237,15.228C8.237,14.609 8.011,14.107 7.732,14.107C7.453,14.107 7.226,14.609 7.226,15.228L7.226,22.109C7.226,22.727 7.453,23.23 7.732,23.23C8.011,23.23 8.237,22.727 8.237,22.109L8.237,15.228Z" style="fill:rgb(85,87,83);"/>
        </g>
        <g transform="matrix(9.37016e-17,1.53026,-0.690015,4.22513e-17,31.1799,0.662375)">
            <path d="M8.237,15.228C8.237,14.609 8.011,14.107 7.732,14.107C7.453,14.107 7.226,14.609 7.226,15.228L7.226,22.109C7.226,22.727 7.453,23.23 7.732,23.23C8.011,23.23 8.237,22.727 8.237,22.109L8.237,15.228Z" style="fill:rgb(85,87,83);"/>
        </g>
        <g transform="matrix(1.80244,0,0,0.795147,-2.25396,-0.731222)">
            <path d="M8.237,15.253C8.237,14.62 8.011,14.107 7.732,14.107C7.453,14.107 7.226,14.62 7.226,15.253L7.226,22.084C7.226,22.716 7.453,23.23 7.732,23.23C8.011,23.23 8.237,22.716 8.237,22.084L8.237,15.253Z" style="fill:rgb(85,87,83);"/>
        </g>
    </g>
</svg>
