<?xml version="1.0" encoding="UTF-8" standalone="no"?>
<!DOCTYPE svg PUBLIC "-//W3C//DTD SVG 1.1//EN" "http://www.w3.org/Graphics/SVG/1.1/DTD/svg11.dtd">
<svg width="100%" height="100%" viewBox="0 0 32 32" version="1.1" xmlns="http://www.w3.org/2000/svg" xmlns:xlink="http://www.w3.org/1999/xlink" xml:space="preserve" xmlns:serif="http://www.serif.com/" style="fill-rule:evenodd;clip-rule:evenodd;stroke-linejoin:round;stroke-miterlimit:2;">
    <g id="Layer-1" serif:id="Layer 1">
        <g id="rect13802-1-3-2-0" transform="matrix(6.12323e-17,1,-1,6.12323e-17,37.0053,-1.83799)">
            <path d="M28.398,12.016L19.971,17.966L19.971,6.065L28.398,12.016Z" style="fill:rgb(85,87,83);fill-rule:nonzero;"/>
        </g>
        <g transform="matrix(1,0,0,1,1,1)">
            <path d="M21.993,14.125C21.993,10.484 19.05,7.532 15.409,7.532C11.768,7.532 8.807,10.484 8.807,14.125L8.807,25.358L4.813,25.358C4.813,25.358 4.813,14.082 4.813,14.061C4.848,8.238 9.578,3.529 15.409,3.529C21.261,3.529 26.005,8.273 26.005,14.125L25.987,17.392L21.993,17.392L21.993,14.125Z" style="fill:rgb(85,87,83);"/>
        </g>
    </g>
</svg>
