<?xml version="1.0" encoding="UTF-8" standalone="no"?>
<svg
   height="32"
   viewBox="0 0 32 32"
   width="32"
   version="1.1"
   id="svg2"
   sodipodi:docname="maps-mark-location.svg"
   inkscape:version="1.3.2 (091e20ef0f, 2023-11-25)"
   xmlns:inkscape="http://www.inkscape.org/namespaces/inkscape"
   xmlns:sodipodi="http://sodipodi.sourceforge.net/DTD/sodipodi-0.dtd"
   xmlns="http://www.w3.org/2000/svg"
   xmlns:svg="http://www.w3.org/2000/svg">
  <defs
     id="defs2" />
  <sodipodi:namedview
     id="namedview2"
     pagecolor="#505050"
     bordercolor="#ffffff"
     borderopacity="1"
     inkscape:showpageshadow="0"
     inkscape:pageopacity="0"
     inkscape:pagecheckerboard="1"
     inkscape:deskcolor="#d1d1d1"
     showgrid="true"
     inkscape:current-layer="svg2">
    <inkscape:grid
       id="grid3"
       units="px"
       originx="0"
       originy="0"
       spacingx="1"
       spacingy="1"
       empcolor="#3f3fff"
       empopacity="0.25098039"
       color="#3f3fff"
       opacity="0.1254902"
       empspacing="5"
       dotted="false"
       gridanglex="30"
       gridanglez="30"
       visible="true" />
  </sodipodi:namedview>
  <g
     id="g3"
     transform="translate(1.4968254)">
    <ellipse
       style="fill:#c01c28;stroke:none;stroke-width:2;stroke-linejoin:round"
       id="path3"
       cx="15.033154"
       cy="13.205359"
       rx="7.1686454"
       ry="6.8627281" />
    <g
       fill="#222222"
       id="g2"
       transform="matrix(2.0004884,0,0,2.0004884,-1.5007326,0)"
       style="stroke-width:0.499878">
      <path
         d="M 8,0 C 4.410156,0 1.5,2.910156 1.5,6.5 1.5,10.089844 4.410156,12.996094 8,12.996094 11.589844,13 14.5,10.089844 14.5,6.5 14.5,2.910156 11.589844,0 8,0 Z M 8,4 C 9.378906,4 10.5,5.117188 10.5,6.5 10.5,7.878906 9.378906,9 8,8.996094 6.621094,8.996094 5.5,7.878906 5.5,6.5 5.5,5.121094 6.617188,4 8,4 Z m 0,0"
         id="path1"
         style="fill:#e01b24;stroke-width:0.499878" />
      <path
         d="M 14.097656,8.746094 8.4375,8.976562 1.902344,8.746094 C 2.589844,10.898438 6,13.996094 8,15.996094 V 16 15.9961 c 2,-2 5.410156,-5.101563 6.097656,-7.25 z m 0,0"
         id="path2"
         style="fill:#e01b24;stroke-width:0.499878" />
    </g>
  </g>
</svg>
