<svg xmlns="http://www.w3.org/2000/svg" xmlns:xlink="http://www.w3.org/1999/xlink" width="128" height="128"><defs><clipPath id="k"><path d="M36 12h68v85H36zm0 0"/></clipPath><clipPath id="E"><path d="M8 28h112v88H8zm0 0"/></clipPath><clipPath id="G"><path d="M8 28h24v69H8zm0 0"/></clipPath><clipPath id="H"><path d="M16 28h16l16-16 16 16h48c4.434 0 8 3.566 8 8v72c0 4.434-3.566 8-8 8H64l-16-16-16 16H16a7.98 7.98 0 01-8-8V36c0-4.434 3.602-8.55 8-8zm0 0"/></clipPath><clipPath id="I"><path d="M36 12h68v85H36zm0 0"/></clipPath><clipPath id="J"><path d="M16 28h16l16-16 16 16h48c4.434 0 8 3.566 8 8v72c0 4.434-3.566 8-8 8H64l-16-16-16 16H16a7.98 7.98 0 01-8-8V36c0-4.434 3.602-8.55 8-8zm0 0"/></clipPath><clipPath id="K"><path d="M8 12h100v89H8zm0 0"/></clipPath><clipPath id="L"><path d="M16 28h16l16-16 16 16h48c4.434 0 8 3.566 8 8v72c0 4.434-3.566 8-8 8H64l-16-16-16 16H16a7.98 7.98 0 01-8-8V36c0-4.434 3.602-8.55 8-8zm0 0"/></clipPath><clipPath id="M"><path d="M8 12h112v104H8zm0 0"/></clipPath><clipPath id="N"><path d="M16 28h16l16-16 16 16h48c4.434 0 8 3.566 8 8v72c0 4.434-3.566 8-8 8H64l-16-16-16 16H16a7.98 7.98 0 01-8-8V36c0-4.434 3.602-8.55 8-8zm0 0"/></clipPath><clipPath id="B"><path d="M0 0h128v128H0z"/></clipPath><clipPath id="z"><path d="M0 0h128v128H0z"/></clipPath><clipPath id="b"><path d="M0 0h192v152H0z"/></clipPath><clipPath id="w"><path d="M0 0h128v128H0z"/></clipPath><clipPath id="f"><path d="M0 0h128v128H0z"/></clipPath><clipPath id="c"><path d="M0 0h192v152H0z"/></clipPath><clipPath id="e"><path d="M0 0h192v152H0z"/></clipPath><clipPath id="d"><path d="M0 0h192v152H0z"/></clipPath><clipPath id="p"><path d="M16 28h16l16-16 16 16h48c4.434 0 8 3.566 8 8v72c0 4.434-3.566 8-8 8H64l-16-16-16 16H16a7.98 7.98 0 01-8-8V36c0-4.434 3.602-8.55 8-8zm0 0"/></clipPath><clipPath id="g"><path d="M8 28h112v88H8zm0 0"/></clipPath><clipPath id="h"><path d="M16 28h16l16-16 16 16h48c4.434 0 8 3.566 8 8v72c0 4.434-3.566 8-8 8H64l-16-16-16 16H16a7.98 7.98 0 01-8-8V36c0-4.434 3.602-8.55 8-8zm0 0"/></clipPath><clipPath id="i"><path d="M8 28h24v69H8zm0 0"/></clipPath><clipPath id="j"><path d="M16 28h16l16-16 16 16h48c4.434 0 8 3.566 8 8v72c0 4.434-3.566 8-8 8H64l-16-16-16 16H16a7.98 7.98 0 01-8-8V36c0-4.434 3.602-8.55 8-8zm0 0"/></clipPath><clipPath id="F"><path d="M16 28h16l16-16 16 16h48c4.434 0 8 3.566 8 8v72c0 4.434-3.566 8-8 8H64l-16-16-16 16H16a7.98 7.98 0 01-8-8V36c0-4.434 3.602-8.55 8-8zm0 0"/></clipPath><clipPath id="l"><path d="M16 28h16l16-16 16 16h48c4.434 0 8 3.566 8 8v72c0 4.434-3.566 8-8 8H64l-16-16-16 16H16a7.98 7.98 0 01-8-8V36c0-4.434 3.602-8.55 8-8zm0 0"/></clipPath><clipPath id="m"><path d="M8 12h100v89H8zm0 0"/></clipPath><clipPath id="n"><path d="M16 28h16l16-16 16 16h48c4.434 0 8 3.566 8 8v72c0 4.434-3.566 8-8 8H64l-16-16-16 16H16a7.98 7.98 0 01-8-8V36c0-4.434 3.602-8.55 8-8zm0 0"/></clipPath><clipPath id="o"><path d="M8 12h112v104H8zm0 0"/></clipPath><mask id="t"><g filter="url(#a)"><path fill-opacity=".15" d="M0 0h128v128H0z"/></g></mask><mask id="O"><g filter="url(#a)"><path fill-opacity=".3" d="M0 0h128v128H0z"/></g></mask><mask id="D"><g filter="url(#a)"><path fill-opacity=".8" d="M0 0h128v128H0z"/></g></mask><mask id="P"><g filter="url(#a)"><path fill-opacity=".15" d="M0 0h128v128H0z"/></g></mask><mask id="r"><g filter="url(#a)"><path fill-opacity=".3" d="M0 0h128v128H0z"/></g></mask><mask id="T"><use xlink:href="#y"/></mask><g id="q" clip-path="url(#b)"><path d="M32 131.992l16 .016V12H32zm0 0" fill="#fff"/></g><g id="s" clip-path="url(#c)"><path d="M48 131.992l16 .016V12H48zm0 0"/></g><g id="x" clip-path="url(#f)"><g clip-path="url(#g)"><g clip-path="url(#h)"><path d="M64 96h40V28h24v96H64l-16-16-16 16H0V96h32l16-16zm0 0" fill="#cdab8f"/></g></g><g clip-path="url(#i)"><g clip-path="url(#j)"><path d="M0 95.992l32 .016V28H0zm0 0" fill="#55a7eb"/></g></g><g clip-path="url(#k)"><g clip-path="url(#l)"><path d="M36 24v68l12-12 16 16.016h36L104 92V28H64L48 12zm0 0" fill="#2ec27e"/></g></g><g clip-path="url(#m)"><g clip-path="url(#n)"><path d="M99.973 28.027v59.5c0 2.508-2.34 4.489-4.235 4.489H64L48 76.148l-9.844 9.883L38 12.016h-6V92l-32 .016v8.023h31.75L48 84l16 16.04h31.738c6.606 0 11.989-5.513 12.262-12.513v-59.5zm0 0" fill="#fff"/></g></g><g clip-path="url(#o)"><g clip-path="url(#p)"><use xlink:href="#q" mask="url(#r)"/><use xlink:href="#s" mask="url(#t)"/></g></g><path d="M92 48c6.629 0 12-5.371 12-12s-5.371-12-12-12-12 5.371-12 12 5.371 12 12 12zm0 0" fill="url(#u)"/><path d="M92 10a27.915 27.915 0 00-19.797 8.2c-10.937 10.937-10.937 28.663 0 39.6L92 77.599s13.82-13.82 19.8-19.797c10.934-10.938 10.934-28.664 0-39.602A27.93 27.93 0 0092 10zm0 18c5.523 0 10 4.477 10 10s-4.477 10-10 10-10-4.477-10-10 4.477-10 10-10zm0 0" fill="#a51d2d"/><path d="M92 8c-7.164 0-14.332 2.734-19.797 8.203-10.937 10.934-10.937 28.66 0 39.594L92 75.597l19.8-19.8c10.934-10.934 10.934-28.66 0-39.594A27.918 27.918 0 0092 8zm0 18c5.523 0 10 4.477 10 10s-4.477 10-10 10-10-4.477-10-10 4.477-10 10-10zm0 0" fill="url(#v)"/></g><g id="C" clip-path="url(#z)"><path d="M128 80.64V128H0V80.64zm0 0" fill="url(#A)"/><path d="M13.309 80.64L60.664 128H81.88l-47.36-47.36zm42.421 0L103.094 128h21.215L76.945 80.64zm42.43 0L128 110.48V89.27l-8.629-8.63zM0 88.548v21.215L18.238 128h21.215zm0 0"/></g><g id="y" clip-path="url(#w)" filter="url(#a)"><use xlink:href="#x"/></g><g id="S" clip-path="url(#B)"><use xlink:href="#C" mask="url(#D)"/></g><linearGradient id="v" gradientUnits="userSpaceOnUse" x1="336" y1="62" x2="336" y2="-180" gradientTransform="matrix(.25 0 0 .25 8 53)"><stop offset="0" stop-color="#d81d25"/><stop offset="1" stop-color="#f66151"/></linearGradient><linearGradient id="A" gradientUnits="userSpaceOnUse" x1="300" y1="235" x2="428" y2="235" gradientTransform="matrix(0 .37 -.98462 0 295.385 -30.36)"><stop offset="0" stop-color="#f9f06b"/><stop offset="1" stop-color="#f5c211"/></linearGradient><linearGradient id="u" gradientUnits="userSpaceOnUse" x1="320.5" y1="-68" x2="415.5" y2="-68" gradientTransform="matrix(0 .25263 .25263 0 109.18 -56.968)"><stop offset="0" stop-color="#a51d2d"/><stop offset="1" stop-color="#ce1921"/></linearGradient><linearGradient id="Q" gradientUnits="userSpaceOnUse" x1="320.5" y1="-68" x2="415.5" y2="-68" gradientTransform="matrix(0 .25263 .25263 0 109.18 -56.968)"><stop offset="0" stop-color="#a51d2d"/><stop offset="1" stop-color="#ce1921"/></linearGradient><linearGradient id="R" gradientUnits="userSpaceOnUse" x1="336" y1="62" x2="336" y2="-180" gradientTransform="matrix(.25 0 0 .25 8 53)"><stop offset="0" stop-color="#d81d25"/><stop offset="1" stop-color="#f66151"/></linearGradient><filter id="a" filterUnits="objectBoundingBox" x="0%" y="0%" width="100%" height="100%"><feColorMatrix in="SourceGraphic" values="0 0 0 0 1 0 0 0 0 1 0 0 0 0 1 0 0 0 1 0"/></filter></defs><g clip-path="url(#E)"><g clip-path="url(#F)"><path d="M64 96h40V28h24v96H64l-16-16-16 16H0V96h32l16-16zm0 0" fill="#cdab8f"/></g></g><g clip-path="url(#G)"><g clip-path="url(#H)"><path d="M0 95.992l32 .016V28H0zm0 0" fill="#55a7eb"/></g></g><g clip-path="url(#I)"><g clip-path="url(#J)"><path d="M36 24v68l12-12 16 16.016h36L104 92V28H64L48 12zm0 0" fill="#2ec27e"/></g></g><g clip-path="url(#K)"><g clip-path="url(#L)"><path d="M99.973 28.027v59.5c0 2.508-2.34 4.489-4.235 4.489H64L48 76.148l-9.844 9.883L38 12.016h-6V92l-32 .016v8.023h31.75L48 84l16 16.04h31.738c6.606 0 11.989-5.513 12.262-12.513v-59.5zm0 0" fill="#fff"/></g></g><g clip-path="url(#M)"><g clip-path="url(#N)"><use xlink:href="#q" mask="url(#O)"/><use xlink:href="#s" mask="url(#P)"/></g></g><path d="M92 48c6.629 0 12-5.371 12-12s-5.371-12-12-12-12 5.371-12 12 5.371 12 12 12zm0 0" fill="url(#Q)"/><path d="M92 10a27.915 27.915 0 00-19.797 8.2c-10.937 10.937-10.937 28.663 0 39.6L92 77.599s13.82-13.82 19.8-19.797c10.934-10.938 10.934-28.664 0-39.602A27.93 27.93 0 0092 10zm0 18c5.523 0 10 4.477 10 10s-4.477 10-10 10-10-4.477-10-10 4.477-10 10-10zm0 0" fill="#a51d2d"/><path d="M92 8c-7.164 0-14.332 2.734-19.797 8.203-10.937 10.934-10.937 28.66 0 39.594L92 75.597l19.8-19.8c10.934-10.934 10.934-28.66 0-39.594A27.918 27.918 0 0092 8zm0 18c5.523 0 10 4.477 10 10s-4.477 10-10 10-10-4.477-10-10 4.477-10 10-10zm0 0" fill="url(#R)"/><use xlink:href="#S" mask="url(#T)"/></svg>