<?xml version="1.0" encoding="UTF-8" standalone="no"?>
<!-- Created with Inkscape (http://www.inkscape.org/) -->
<svg xmlns:rdf="http://www.w3.org/1999/02/22-rdf-syntax-ns#" xmlns="http://www.w3.org/2000/svg" height="16px" width="16px" version="1.1" xmlns:cc="http://creativecommons.org/ns#" xmlns:dc="http://purl.org/dc/elements/1.1/">
 <metadata>
  <rdf:RDF>
   <cc:Work rdf:about="">
    <dc:format>image/svg+xml</dc:format>
    <dc:type rdf:resource="http://purl.org/dc/dcmitype/StillImage"/>
    <dc:title/>
   </cc:Work>
  </rdf:RDF>
 </metadata>
 <path style="baseline-shift:baseline;block-progression:tb;color:#000000;direction:ltr;text-indent:0;text-align:start;enable-background:accumulate;text-transform:none;" fill="#bebebe" d="M8.0312,0c-4.4205,0-8.0312,3.6107-8.0312,8.0312,0,4.4208,3.6107,8.0308,8.0312,8.0308,4.4208,0,8.0308-3.61,8.0308-8.0308,0-4.4205-3.61-8.0312-8.0308-8.0312zm0,2c3.3398,0,5.9998,2.6916,5.9998,6.0312,0,3.3398-2.66,5.9998-5.9998,5.9998-3.3396,0-6.0312-2.66-6.0312-5.9998,0-3.3396,2.6916-6.0312,6.0312-6.0312zm-2.875,1.75l-1.4062,1.4062,2.3125,2.3126c-0.046,0.1683-0.0625,0.3483-0.0625,0.5312,0,1.1046,0.8954,2,2,2,0.1829,0,0.3629-0.0165,0.5312-0.0625l2.3128,2.3125,1.406-1.438-2.3125-2.312c0.0411-0.1598,0.0625-0.3274,0.0625-0.5,0-1.1046-0.8954-2-2-2-0.1829,0-0.3629,0.0165-0.5312,0.0625l-2.3126-2.3125zm2.8438,3.25c0.5523,0,1,0.4477,1,1s-0.4477,1-1,1-1-0.4477-1-1,0.4477-1,1-1z"/>
</svg>
