<?xml version="1.0" encoding="UTF-8" standalone="no"?>
<!-- Created with Inkscape (http://www.inkscape.org/) -->
<svg xmlns:dc="http://purl.org/dc/elements/1.1/" xmlns:cc="http://creativecommons.org/ns#" xmlns:rdf="http://www.w3.org/1999/02/22-rdf-syntax-ns#" xmlns:svg="http://www.w3.org/2000/svg" xmlns="http://www.w3.org/2000/svg" xmlns:sodipodi="http://sodipodi.sourceforge.net/DTD/sodipodi-0.dtd" xmlns:inkscape="http://www.inkscape.org/namespaces/inkscape" id="svg7384" height="16" width="16" sodipodi:docname="hicolor_apps_16x16_route-reverse-symbolic.svg" version="1.1" inkscape:version="0.92.0 r">
  <metadata id="metadata90">
    <rdf:RDF>
      <cc:Work rdf:about="">
        <dc:format>image/svg+xml</dc:format>
        <dc:type rdf:resource="http://purl.org/dc/dcmitype/StillImage"/>
        <dc:title>Gnome Symbolic Icon Theme</dc:title>
      </cc:Work>
    </rdf:RDF>
  </metadata>
  <sodipodi:namedview inkscape:cx="4.2005821" inkscape:cy="14.948942" inkscape:snap-bbox="true" objecttolerance="10" showgrid="false" showborder="true" inkscape:window-width="1920" inkscape:snap-grids="true" inkscape:zoom="8" guidetolerance="10" inkscape:pageopacity="0" pagecolor="#ffffff" inkscape:snap-bbox-midpoints="false" inkscape:bbox-paths="false" inkscape:snap-others="false" gridtolerance="10" id="namedview88" inkscape:window-x="0" inkscape:window-y="27" borderopacity="1" inkscape:pageshadow="2" inkscape:window-height="1016" inkscape:window-maximized="1" bordercolor="#666666" showguides="true" inkscape:guide-bbox="true" inkscape:snap-nodes="true" inkscape:snap-to-guides="true" inkscape:object-paths="false" inkscape:current-layer="layer12" inkscape:object-nodes="false" inkscape:snap-global="true">
    <inkscape:grid type="xygrid" snapvisiblegridlinesonly="true" visible="true" id="grid4866" empspacing="2" enabled="true" spacingx="1" spacingy="1" originx="0" originy="0"/>
  </sodipodi:namedview>
  <title id="title9167">Gnome Symbolic Icon Theme</title>
  <defs id="defs7386"/>
  <g inkscape:label="status" id="layer9" transform="translate(-81.00015,-687)" style="display:inline" inkscape:groupmode="layer"/>
  <g inkscape:label="devices" id="layer10" transform="translate(-81.00015,-687)" inkscape:groupmode="layer"/>
  <g inkscape:label="apps" id="layer11" transform="translate(-81.00015,-687)" inkscape:groupmode="layer"/>
  <g inkscape:label="places" id="layer13" transform="translate(-81.00015,-687)" inkscape:groupmode="layer"/>
  <g inkscape:label="mimetypes" id="layer14" transform="translate(-81.00015,-687)" inkscape:groupmode="layer"/>
  <g inkscape:label="emblems" id="layer15" transform="translate(-81.00015,-687)" style="display:inline" inkscape:groupmode="layer"/>
  <g inkscape:label="emotes" transform="translate(-81.00015,-687)" id="g71291" style="display:inline" inkscape:groupmode="layer"/>
  <g inkscape:label="categories" id="g4953" transform="translate(-81.00015,-687)" style="display:inline" inkscape:groupmode="layer"/>
  <g inkscape:label="actions" id="layer12" transform="translate(-81.00015,-687)" style="display:inline" inkscape:groupmode="layer">
    <path style="font-size:medium;font-style:normal;font-variant:normal;font-weight:normal;font-stretch:normal;text-indent:0;text-align:start;text-decoration:none;line-height:normal;letter-spacing:normal;word-spacing:normal;text-transform:none;direction:ltr;block-progression:tb;writing-mode:lr-tb;text-anchor:start;color:#000000;fill:#2e3436;fill-opacity:1;stroke:none;stroke-width:2;marker:none;visibility:visible;display:inline;overflow:visible;enable-background:accumulate;font-family:Bitstream Vera Sans;-inkscape-font-specification:Bitstream Vera Sans" d="M 4.5625 2 L 4.28125 2.28125 L 1.28125 5.28125 C 1.09304 5.46943 1 5.73471 1 6 L 1 7 L 2 7 C 2.26531 7.00004 2.53057 6.90686 2.71875 6.71875 L 4 5.4375 L 4 11 L 6 11 L 6 5.4375 L 7.28125 6.71875 C 7.46942 6.9069 7.7347 7 8 7 L 9 7 L 9 6 C 8.99997 5.73469 8.90689 5.46943 8.71875 5.28125 L 5.71875 2.28125 L 5.4375 2 L 4.5625 2 z " transform="translate(81.00015,687)" id="path3613-6-6-9"/>
    <path style="font-size:medium;font-style:normal;font-variant:normal;font-weight:normal;font-stretch:normal;text-indent:0;text-align:start;text-decoration:none;line-height:normal;letter-spacing:normal;word-spacing:normal;text-transform:none;direction:ltr;block-progression:tb;writing-mode:lr-tb;text-anchor:start;color:#000000;fill:#2e3436;fill-opacity:1;stroke:none;stroke-width:2;marker:none;visibility:visible;display:inline;overflow:visible;enable-background:accumulate;font-family:Bitstream Vera Sans;-inkscape-font-specification:Bitstream Vera Sans" d="M 10 4 L 10 9.5625 L 8.71875 8.28125 C 8.53057 8.09314 8.26531 7.99996 8 8 L 7 8 L 7 9 C 7 9.26529 7.09304 9.53057 7.28125 9.71875 L 10.28125 12.71875 L 10.5625 13 L 11.4375 13 L 11.71875 12.71875 L 14.71875 9.71875 C 14.90689 9.53057 14.99997 9.26531 15 9 L 15 8 L 14 8 C 13.7347 8 13.46942 8.0931 13.28125 8.28125 L 12 9.5625 L 12 4 L 10 4 z " transform="translate(81.00015,687)" id="path3613-6-6-9-5"/>
  </g>
</svg>