<?xml version="1.0" encoding="UTF-8" standalone="no"?>
<!-- Created with Inkscape (http://www.inkscape.org/) -->

<svg
   xmlns:dc="http://purl.org/dc/elements/1.1/"
   xmlns:cc="http://creativecommons.org/ns#"
   xmlns:rdf="http://www.w3.org/1999/02/22-rdf-syntax-ns#"
   xmlns:svg="http://www.w3.org/2000/svg"
   xmlns="http://www.w3.org/2000/svg"
   xmlns:sodipodi="http://sodipodi.sourceforge.net/DTD/sodipodi-0.dtd"
   xmlns:inkscape="http://www.inkscape.org/namespaces/inkscape"
   width="16"
   height="16"
   viewBox="0 0 16 16"
   id="svg5027"
   version="1.1"
   inkscape:version="0.91 r13725"
   sodipodi:docname="hicolor_apps_16x16_route-transit-tram-symbolic.svg">
  <defs
     id="defs5029" />
  <sodipodi:namedview
     id="base"
     pagecolor="#ffffff"
     bordercolor="#666666"
     borderopacity="1.0"
     inkscape:pageopacity="0.0"
     inkscape:pageshadow="2"
     inkscape:zoom="32"
     inkscape:cx="9.5148294"
     inkscape:cy="8.3344636"
     inkscape:document-units="px"
     inkscape:current-layer="layer1"
     showgrid="true"
     units="px"
     inkscape:snap-bbox="true"
     inkscape:bbox-paths="true"
     inkscape:bbox-nodes="true"
     inkscape:window-width="1920"
     inkscape:window-height="1016"
     inkscape:window-x="0"
     inkscape:window-y="27"
     inkscape:window-maximized="1">
    <inkscape:grid
       type="xygrid"
       id="grid5575" />
  </sodipodi:namedview>
  <metadata
     id="metadata5032">
    <rdf:RDF>
      <cc:Work
         rdf:about="">
        <dc:format>image/svg+xml</dc:format>
        <dc:type
           rdf:resource="http://purl.org/dc/dcmitype/StillImage" />
        <dc:title></dc:title>
      </cc:Work>
    </rdf:RDF>
  </metadata>
  <g
     inkscape:label="Layer 1"
     inkscape:groupmode="layer"
     id="layer1"
     transform="translate(0,-1036.3622)">
    <path
       inkscape:connector-curvature="0"
       style="opacity:1;fill:#2e3436;fill-opacity:1;stroke:none;stroke-width:1;stroke-linecap:round;stroke-linejoin:round;stroke-miterlimit:4;stroke-dasharray:none;stroke-dashoffset:0;stroke-opacity:1"
       d="m 6.0118482,1036.3574 0,1 4.9843998,0 0,-1 -4.9843998,0 z m -1.9219,2 c -0.5886,0 -1.0625,0.4739 -1.0625,1.0625 l 0,8.875 c 0,0.5886 0.4739,1.0625 1.0625,1.0625 l 8.8438008,0 c 0.5886,0 1.0625,-0.4739 1.0625,-1.0625 l 0,-8.875 c 0,-0.5886 -0.4739,-1.0625 -1.0625,-1.0625 l -8.8438008,0 z m 0.9063,1 7.0312008,0 c 0.5367,0 0.9688,0.4318 0.9688,0.9688 l 0,3.0469 c 0,0.5371 -0.4321,0.9687 -0.9688,0.9687 l -7.0312008,0 c -0.5367,0 -0.9688,-0.4317 -0.9688,-0.9687 l 0,-3.0469 c 0,-0.5371 0.4321,-0.9688 0.9688,-0.9688 z m 3.5058,5.9747 a 1.5078125,1.5078125 0 0 1 1.5078998,1.5078 1.5078125,1.5078125 0 0 1 -1.5078998,1.5078 1.5078125,1.5078125 0 0 1 -1.5078,-1.5078 1.5078125,1.5078125 0 0 1 1.5078,-1.5078 z m -4.1367,5.0253 -1.1523,1.1387 c -0.4753,0.4687 0.2278,1.1816 0.7031,0.7129 l 1.8711,-1.8516 -1.4219,0 z m 6.9024008,0 1.8711,1.8516 c 0.4752,0.4687 1.1783,-0.2442 0.7031,-0.7129 l -1.1524,-1.1387 -1.4218,0 z"
       id="rect5154-8-2-7-9-8-5-2-33-2"
       inkscape:export-filename="/home/andreasn/SparkleShare/gnome-mockups/maps/v2/routing-icons.png"
       inkscape:export-xdpi="90"
       inkscape:export-ydpi="90" />
  </g>
</svg>
