<?xml version="1.0" encoding="UTF-8" standalone="no"?>
<!-- Created with Inkscape (http://www.inkscape.org/) -->

<svg
   xmlns:dc="http://purl.org/dc/elements/1.1/"
   xmlns:cc="http://creativecommons.org/ns#"
   xmlns:rdf="http://www.w3.org/1999/02/22-rdf-syntax-ns#"
   xmlns:svg="http://www.w3.org/2000/svg"
   xmlns="http://www.w3.org/2000/svg"
   xmlns:sodipodi="http://sodipodi.sourceforge.net/DTD/sodipodi-0.dtd"
   xmlns:inkscape="http://www.inkscape.org/namespaces/inkscape"
   width="16"
   height="16"
   viewBox="0 0 16 16"
   id="svg5027"
   version="1.1"
   inkscape:version="0.91 r13725"
   sodipodi:docname="hicolor_apps_16x16_route-transit-bus-symbolic.svg">
  <defs
     id="defs5029" />
  <sodipodi:namedview
     id="base"
     pagecolor="#ffffff"
     bordercolor="#666666"
     borderopacity="1.0"
     inkscape:pageopacity="0.0"
     inkscape:pageshadow="2"
     inkscape:zoom="11.313708"
     inkscape:cx="8.2717204"
     inkscape:cy="8.7812198"
     inkscape:document-units="px"
     inkscape:current-layer="layer1"
     showgrid="false"
     units="px"
     inkscape:snap-bbox="true"
     inkscape:bbox-paths="true"
     inkscape:bbox-nodes="true"
     inkscape:window-width="1920"
     inkscape:window-height="1016"
     inkscape:window-x="0"
     inkscape:window-y="27"
     inkscape:window-maximized="1">
    <inkscape:grid
       type="xygrid"
       id="grid5575" />
  </sodipodi:namedview>
  <metadata
     id="metadata5032">
    <rdf:RDF>
      <cc:Work
         rdf:about="">
        <dc:format>image/svg+xml</dc:format>
        <dc:type
           rdf:resource="http://purl.org/dc/dcmitype/StillImage" />
        <dc:title></dc:title>
      </cc:Work>
    </rdf:RDF>
  </metadata>
  <g
     inkscape:label="Layer 1"
     inkscape:groupmode="layer"
     id="layer1"
     transform="translate(0,-1036.3622)">
    <path
       style="color:#000000;display:inline;overflow:visible;visibility:visible;fill:#2e3436;fill-opacity:1;fill-rule:nonzero;stroke:none;stroke-width:1;marker:none;enable-background:accumulate"
       d="m 1.9773,1037.406 c -0.5194,0 -0.9375,0.418 -0.9375,0.9375 l 0,12.925 c 0,0.606 0.4878,1.0937 1.0937,1.0937 l 0.8125,0 c 0.606,0 1.0938,-0.4877 1.0938,-1.0937 l 0,-0.9063 7.9602,0 0,0.9063 c 0,0.606 0.4878,1.0937 1.0938,1.0937 l 0.8125,0 c 0.6059,0 1.0937,-0.4877 1.0937,-1.0937 l 0,-12.925 c 0,-0.5195 -0.4181,-0.9375 -0.9375,-0.9375 z m 1.1783,0.9975 9.7728,0 c 0.6059,0 1.0937,0.488 1.0937,1.0939 l 0,4.7711 c 0,0.6059 -0.4878,1.0937 -1.0937,1.0937 l -9.7728,0 c -0.6059,0 -1.0937,-0.4878 -1.0937,-1.0937 l 0,-4.7711 c 0,-0.6059 0.4878,-1.0939 1.0937,-1.0939 z m 0.386,7.9587 c 0.8284,0 1.5,0.6716 1.5,1.5 0,0.8285 -0.6716,1.5 -1.5,1.5 -0.8284,0 -1.5,-0.6715 -1.5,-1.5 0,-0.8284 0.6716,-1.5 1.5,-1.5 z m 9.0061,0 c 0.8285,0 1.5,0.6716 1.5,1.5 0,0.8285 -0.6715,1.5 -1.5,1.5 -0.8284,0 -1.4219,-0.6715 -1.4219,-1.5 0,-0.8284 0.5935,-1.5 1.4219,-1.5 z"
       id="rect6086-1-3-2-7-0-9-0-5-7"
       inkscape:connector-curvature="0"
       sodipodi:nodetypes="sccsssccsssccsssssssssssssssssssss"
       inkscape:export-filename="/home/andreasn/SparkleShare/gnome-mockups/maps/v2/routing-icons.png"
       inkscape:export-xdpi="90"
       inkscape:export-ydpi="90" />
  </g>
</svg>
