<?xml version="1.0" encoding="UTF-8" standalone="no"?>
<!-- Created with Inkscape (http://www.inkscape.org/) -->
<svg xmlns:dc="http://purl.org/dc/elements/1.1/" xmlns:cc="http://creativecommons.org/ns#" xmlns:rdf="http://www.w3.org/1999/02/22-rdf-syntax-ns#" xmlns:svg="http://www.w3.org/2000/svg" xmlns="http://www.w3.org/2000/svg" xmlns:sodipodi="http://sodipodi.sourceforge.net/DTD/sodipodi-0.dtd" xmlns:inkscape="http://www.inkscape.org/namespaces/inkscape" width="16px" height="16px" id="svg6558" version="1.1" inkscape:version="0.48.4 r9939" sodipodi:docname="route-cycling-symbolic.svg">
  <defs id="defs6560"/>
  <sodipodi:namedview id="base" pagecolor="#ffffff" bordercolor="#666666" borderopacity="1.0" inkscape:pageopacity="0.0" inkscape:pageshadow="2" inkscape:zoom="45.254834" inkscape:cx="13.7037" inkscape:cy="8.1151584" inkscape:current-layer="layer1" showgrid="false" inkscape:grid-bbox="true" inkscape:document-units="px" inkscape:snap-nodes="false" inkscape:snap-bbox="true" inkscape:window-width="1920" inkscape:window-height="1014" inkscape:window-x="0" inkscape:window-y="27" inkscape:window-maximized="1">
    <inkscape:grid type="xygrid" id="grid6938"/>
  </sodipodi:namedview>
  <metadata id="metadata6563">
    <rdf:RDF>
      <cc:Work rdf:about="">
        <dc:format>image/svg+xml</dc:format>
        <dc:type rdf:resource="http://purl.org/dc/dcmitype/StillImage"/>
        <dc:title/>
      </cc:Work>
    </rdf:RDF>
  </metadata>
  <g id="layer1" inkscape:label="Layer 1" inkscape:groupmode="layer">
    <path style="font-size:medium;font-style:normal;font-variant:normal;font-weight:normal;font-stretch:normal;text-indent:0;text-align:start;text-decoration:none;line-height:normal;letter-spacing:normal;word-spacing:normal;text-transform:none;direction:ltr;block-progression:tb;writing-mode:lr-tb;text-anchor:start;baseline-shift:baseline;color:#000000;fill:#2e3436;fill-opacity:1;stroke:none;stroke-width:1.31249988;marker:none;visibility:visible;display:inline;overflow:visible;enable-background:accumulate;font-family:Sans;-inkscape-font-specification:Sans" d="M 11 2 C 9.971479 2 9.1411313 2.780118 9.03125 3.78125 L 3.0625 8.53125 L 8 10.65625 L 8 14 L 9 14 L 9 10 L 5 8.28125 L 7.09375 6.59375 L 9.21875 8.96875 L 13 8.96875 L 13 7.96875 L 9.65625 7.96875 L 7.875 5.96875 L 9.21875 4.90625 C 9.5484621 5.5568813 10.221826 6 11 6 C 12.103146 6 13 5.1052236 13 4 C 13 2.8947762 12.103146 2 11 2 z M 3 9.96875 C 1.3490679 9.96875 -2.9605947e-16 11.317818 0 12.96875 C 0 14.619682 1.3490679 15.96875 3 15.96875 C 4.6509321 15.96875 6 14.619682 6 12.96875 C 6 11.317818 4.6509321 9.96875 3 9.96875 z M 13 9.96875 C 11.349067 9.96875 10 11.317818 10 12.96875 C 10 14.619682 11.349067 15.96875 13 15.96875 C 14.650932 15.96875 16 14.619682 16 12.96875 C 16 11.317818 14.650932 9.96875 13 9.96875 z M 3 10.96875 C 4.1104919 10.96875 5 11.858258 5 12.96875 C 5 14.079242 4.1104919 14.96875 3 14.96875 C 1.8895081 14.96875 1 14.079242 1 12.96875 C 1 11.858258 1.8895081 10.96875 3 10.96875 z M 13 10.96875 C 14.110491 10.96875 15 11.858258 15 12.96875 C 15 14.079242 14.110491 14.96875 13 14.96875 C 11.889508 14.96875 11 14.079242 11 12.96875 C 11 11.858258 11.889508 10.96875 13 10.96875 z " id="path6050-13"/>
  </g>
</svg>