<?xml version="1.0" encoding="UTF-8"?>
<svg xmlns="http://www.w3.org/2000/svg" height="16px" viewBox="0 0 16 16" width="16px"><path d="m 7.984375 4 c -0.261719 0.003906 -0.515625 0.113281 -0.703125 0.300781 l -2.917969 3 c -0.375 0.390625 -0.375 1.007813 0 1.398438 l 2.917969 3 c 0.386719 0.394531 1.019531 0.402343 1.414062 0.019531 c 0.398438 -0.386719 0.40625 -1.019531 0.019532 -1.417969 l -1.265625 -1.300781 h 7.550781 c 0.550781 0 1 -0.449219 1 -1 s -0.449219 -1 -1 -1 h -7.550781 l 1.265625 -1.300781 c 0.386718 -0.398438 0.378906 -1.03125 -0.019532 -1.417969 c -0.1875 -0.183594 -0.445312 -0.285156 -0.710937 -0.28125 z m 0 0" fill="#222222" fill-rule="evenodd"/></svg>
