<?xml version="1.0" encoding="UTF-8"?>
<svg xmlns="http://www.w3.org/2000/svg" xmlns:xlink="http://www.w3.org/1999/xlink" width="16px" height="16px" viewBox="0 0 16 16" version="1.1">
<g id="surface130310">
<path style=" stroke:none;fill-rule:nonzero;fill:rgb(18.039216%,20.392157%,21.176471%);fill-opacity:1;" d="M 13.023438 9.050781 L 12.023438 9.054688 L 2.023438 9.054688 L 2.023438 12.910156 C 2.023438 14.097656 2.980469 15.054688 4.167969 15.054688 L 9.882812 15.054688 C 10.78125 15.054688 11.542969 14.503906 11.863281 13.726562 C 12.21875 13.921875 12.617188 14.027344 13.023438 14.035156 C 14.40625 14.035156 15.523438 12.914062 15.523438 11.535156 C 15.523438 10.15625 14.40625 9.050781 13.023438 9.050781 Z M 13.023438 10.070312 C 13.832031 10.070312 14.488281 10.726562 14.488281 11.535156 C 14.488281 12.34375 13.832031 13 13.023438 13 C 12.644531 12.980469 12.285156 12.816406 12.023438 12.539062 L 12.023438 10.53125 C 12.285156 10.253906 12.644531 10.089844 13.023438 10.070312 Z M 13.023438 10.070312 "/>
<path style=" stroke:none;fill-rule:nonzero;fill:rgb(18.039216%,20.392157%,21.176471%);fill-opacity:1;" d="M 5.988281 1 L 5.988281 1.515625 C 5.988281 2.335938 6.664062 3.015625 7.488281 3.015625 L 10.488281 3.015625 C 10.769531 3.015625 10.988281 3.230469 10.988281 3.515625 C 10.988281 3.796875 10.769531 4.015625 10.488281 4.015625 L 3.488281 4.015625 C 2.664062 4.015625 1.988281 4.691406 1.988281 5.515625 C 1.988281 6.335938 2.664062 7.015625 3.488281 7.015625 L 7.488281 7.015625 C 7.769531 7.015625 7.988281 7.230469 7.988281 7.515625 L 7.988281 8 L 8.988281 8 L 8.988281 7.515625 C 8.988281 6.691406 8.308594 6.015625 7.488281 6.015625 L 3.488281 6.015625 C 3.203125 6.015625 2.988281 5.796875 2.988281 5.515625 C 2.988281 5.230469 3.203125 5.015625 3.488281 5.015625 L 10.488281 5.015625 C 11.308594 5.015625 11.988281 4.335938 11.988281 3.515625 C 11.988281 2.691406 11.308594 2.015625 10.488281 2.015625 L 7.488281 2.015625 C 7.203125 2.015625 6.988281 1.796875 6.988281 1.515625 L 6.988281 1 Z M 5.988281 1 "/>
</g>
</svg>
