<?xml version="1.0" encoding="UTF-8"?>
<svg xmlns="http://www.w3.org/2000/svg" xmlns:xlink="http://www.w3.org/1999/xlink" height="16px" viewBox="0 0 16 16" width="16px"><filter id="a" height="100%" width="100%" x="0%" y="0%"><feColorMatrix color-interpolation-filters="sRGB" values="0 0 0 0 1 0 0 0 0 1 0 0 0 0 1 0 0 0 1 0"/></filter><mask id="b"><g filter="url(#a)"><path d="m -1.6 -1.6 h 19.2 v 19.2 h -19.2 z" fill-opacity="0.5"/></g></mask><clipPath id="c"><path d="m 0 0 h 1600 v 1200 h -1600 z"/></clipPath><mask id="d"><g filter="url(#a)"><path d="m -1.6 -1.6 h 19.2 v 19.2 h -19.2 z" fill-opacity="0.7"/></g></mask><clipPath id="e"><path d="m 0 0 h 1600 v 1200 h -1600 z"/></clipPath><mask id="f"><g filter="url(#a)"><path d="m -1.6 -1.6 h 19.2 v 19.2 h -19.2 z" fill-opacity="0.35"/></g></mask><clipPath id="g"><path d="m 0 0 h 1600 v 1200 h -1600 z"/></clipPath><g mask="url(#b)"><g clip-path="url(#c)" transform="matrix(1 0 0 1 -300 -160)"><path d="m 550 182 c -0.351562 0.003906 -0.695312 0.101562 -1 0.28125 v 3.4375 c 0.304688 0.179688 0.648438 0.277344 1 0.28125 c 1.105469 0 2 -0.894531 2 -2 s -0.894531 -2 -2 -2 z m 0 5 c -0.339844 0 -0.679688 0.058594 -1 0.175781 v 6.824219 h 4 v -4 c 0 -1.65625 -1.34375 -3 -3 -3 z m 0 0"/></g></g><g mask="url(#d)"><g clip-path="url(#e)" transform="matrix(1 0 0 1 -300 -160)"><path d="m 569 182 v 4 c 1.105469 0 2 -0.894531 2 -2 s -0.894531 -2 -2 -2 z m 0 5 v 7 h 3 v -4 c 0 -1.65625 -1.34375 -3 -3 -3 z m 0 0"/></g></g><g mask="url(#f)"><g clip-path="url(#g)" transform="matrix(1 0 0 1 -300 -160)"><path d="m 573 182.269531 v 3.449219 c 0.613281 -0.355469 0.996094 -1.007812 1 -1.71875 c 0 -0.714844 -0.382812 -1.375 -1 -1.730469 z m 0 4.90625 v 6.824219 h 2 v -4 c 0 -1.269531 -0.800781 -2.402344 -2 -2.824219 z m 0 0"/></g></g><g fill="#222222"><path d="m 12.191406 2 h 1.621094 c 1.203125 0 2.179688 0.976562 2.179688 2.179688 v 1.640624 c 0 1.203126 -0.976563 2.179688 -2.179688 2.179688 h -1.621094 c -1.203125 0 -2.179687 -0.976562 -2.179687 -2.179688 v -1.640624 c 0 -1.203126 0.976562 -2.179688 2.179687 -2.179688 z m 0 0"/><path d="m 15.988281 5.613281 v 6.988281 c 0 1.320313 -1.070312 2.386719 -2.386719 2.386719 h -8.597656 c -0.554687 0 -1.003906 -0.449219 -1.003906 -1.003906 v -0.441406 c 0 -1.957031 1.585938 -3.542969 3.542969 -3.542969 h 2.347656 c 1.140625 0 2.066406 -0.925781 2.066406 -2.0625 v -2.351562 z m 0 0"/><path d="m 9.992188 3.964844 v -4.011719 l 2.125 2.015625 z m 0 0"/><path d="m 15.992188 3.964844 v -4.011719 l -1.960938 2.015625 z m 0 0"/><path d="m 5.878906 13 h -2.898437 c -0.535157 0 -0.980469 -0.445312 -0.980469 -0.980469 v -0.160156 c 0 -1.039063 0.425781 -2.03125 1.175781 -2.75 l 1.804688 -1.726563 c 0.671875 -0.640624 1.050781 -1.53125 1.050781 -2.457031 v -0.253906 c 0 -1.480469 -1.191406 -2.671875 -2.671875 -2.671875 h -1.464844 c -0.550781 0 -1 0.445312 -1 1 c 0 0.550781 0.449219 1 1 1 h 1.464844 c 0.367187 0 0.671875 0.304688 0.671875 0.671875 v 0.253906 c 0 0.382813 -0.15625 0.746094 -0.429688 1.011719 l -1.808593 1.726562 c -1.144531 1.09375 -1.792969 2.609376 -1.792969 4.195313 v 0.160156 c 0 1.652344 1.328125 2.980469 2.980469 2.980469 h 2.898437 c 0.550782 0 1 -0.449219 1 -1 s -0.449218 -1 -1 -1 z m 0 0"/></g></svg>
