<?xml version="1.0" encoding="UTF-8"?>
<svg xmlns="http://www.w3.org/2000/svg" xmlns:xlink="http://www.w3.org/1999/xlink" width="16px" height="16px" viewBox="0 0 16 16" version="1.1">
<g id="surface216812">
<path style=" stroke:none;fill-rule:nonzero;fill:rgb(18.039216%,20.392157%,21.176471%);fill-opacity:1;" d="M 6 0 L 6 4 L 5 4 L 5 6 L 4 6 L 4 15 L 3 15 L 3 6 L 0 6 L 0 16 L 16 16 L 16 15 L 15 15 L 15 11 L 14 11 L 14 3 L 11 6 L 11 11 L 10 11 L 10 15 L 9 15 L 9 6 L 8 6 L 8 4 L 7 4 L 7 0 Z M 12.5 6 C 12.777344 6 13 6.222656 13 6.5 C 13 6.777344 12.777344 7 12.5 7 C 12.222656 7 12 6.777344 12 6.5 C 12 6.222656 12.222656 6 12.5 6 Z M 1 7 L 2 7 L 2 8 L 1 8 Z M 5 7 L 8 7 L 8 8 L 5 8 Z M 12.5 8 C 12.777344 8 13 8.222656 13 8.5 C 13 8.777344 12.777344 9 12.5 9 C 12.222656 9 12 8.777344 12 8.5 C 12 8.222656 12.222656 8 12.5 8 Z M 1 9 L 2 9 L 2 10 L 1 10 Z M 5 9 L 8 9 L 8 10 L 5 10 Z M 12.5 10.007812 C 12.777344 10.007812 13 10.230469 13 10.507812 C 13 10.785156 12.777344 11.007812 12.5 11.007812 C 12.222656 11.007812 12 10.785156 12 10.507812 C 12 10.230469 12.222656 10.007812 12.5 10.007812 Z M 1 11 L 2 11 L 2 12 L 1 12 Z M 5 11 L 8 11 L 8 12 L 5 12 Z M 11 12 L 14 12 L 14 13 L 11 13 Z M 1 13 L 2 13 L 2 14 L 1 14 Z M 5 13 L 8 13 L 8 14 L 5 14 Z M 5 13 "/>
</g>
</svg>
