<?xml version="1.0" encoding="UTF-8"?>
<svg xmlns="http://www.w3.org/2000/svg" xmlns:xlink="http://www.w3.org/1999/xlink" height="16px" viewBox="0 0 16 16" width="16px"><filter id="a" height="100%" width="100%" x="0%" y="0%"><feColorMatrix color-interpolation-filters="sRGB" values="0 0 0 0 1 0 0 0 0 1 0 0 0 0 1 0 0 0 1 0"/></filter><mask id="b"><g filter="url(#a)"><path d="m -1.6 -1.6 h 19.2 v 19.2 h -19.2 z" fill-opacity="0.5"/></g></mask><clipPath id="c"><path d="m 0 0 h 1600 v 1200 h -1600 z"/></clipPath><mask id="d"><g filter="url(#a)"><path d="m -1.6 -1.6 h 19.2 v 19.2 h -19.2 z" fill-opacity="0.7"/></g></mask><clipPath id="e"><path d="m 0 0 h 1600 v 1200 h -1600 z"/></clipPath><mask id="f"><g filter="url(#a)"><path d="m -1.6 -1.6 h 19.2 v 19.2 h -19.2 z" fill-opacity="0.35"/></g></mask><clipPath id="g"><path d="m 0 0 h 1600 v 1200 h -1600 z"/></clipPath><g mask="url(#b)"><g clip-path="url(#c)" transform="matrix(1 0 0 1 -780 -140)"><path d="m 550 182 c -0.351562 0.003906 -0.695312 0.101562 -1 0.28125 v 3.4375 c 0.304688 0.179688 0.648438 0.277344 1 0.28125 c 1.105469 0 2 -0.894531 2 -2 s -0.894531 -2 -2 -2 z m 0 5 c -0.339844 0 -0.679688 0.058594 -1 0.175781 v 6.824219 h 4 v -4 c 0 -1.65625 -1.34375 -3 -3 -3 z m 0 0"/></g></g><g mask="url(#d)"><g clip-path="url(#e)" transform="matrix(1 0 0 1 -780 -140)"><path d="m 569 182 v 4 c 1.105469 0 2 -0.894531 2 -2 s -0.894531 -2 -2 -2 z m 0 5 v 7 h 3 v -4 c 0 -1.65625 -1.34375 -3 -3 -3 z m 0 0"/></g></g><g mask="url(#f)"><g clip-path="url(#g)" transform="matrix(1 0 0 1 -780 -140)"><path d="m 573 182.269531 v 3.449219 c 0.613281 -0.355469 0.996094 -1.007812 1 -1.71875 c 0 -0.714844 -0.382812 -1.375 -1 -1.730469 z m 0 4.90625 v 6.824219 h 2 v -4 c 0 -1.269531 -0.800781 -2.402344 -2 -2.824219 z m 0 0"/></g></g><path d="m 7.417969 6.1875 l -7 5 c -0.355469 0.25 -0.5039065 0.703125 -0.371094 1.117188 c 0.132813 0.414062 0.519531 0.695312 0.953125 0.695312 h 14 c 0.433594 0 0.820312 -0.28125 0.953125 -0.695312 c 0.132813 -0.414063 -0.015625 -0.867188 -0.371094 -1.117188 l -7 -5 c -0.347656 -0.25 -0.816406 -0.25 -1.164062 0 z m 0.582031 2.042969 l 3.878906 2.769531 h -7.757812 z m 0 0"/><path d="m 8.003906 1 c -1.640625 0 -2.992187 1.355469 -2.992187 2.996094 v 0.019531 c 0 0.550781 0.445312 1 1 1 c 0.550781 0 1 -0.449219 1 -1 v -0.019531 c 0 -0.5625 0.429687 -0.996094 0.992187 -0.996094 s 0.996094 0.433594 0.996094 0.996094 v 0.007812 c 0 0.5625 -0.433594 0.996094 -0.996094 0.996094 h -0.003906 c -0.550781 0 -1 0.449219 -1 1 v 1 c 0 0.550781 0.449219 1 1 1 s 1 -0.449219 1 -1 v -0.414062 c 1.105469 -0.441407 2 -1.324219 2 -2.582032 v -0.007812 c 0 -1.640625 -1.355469 -2.996094 -2.996094 -2.996094 z m 0 0"/></svg>
