<?xml version="1.0" encoding="UTF-8"?>
<svg xmlns="http://www.w3.org/2000/svg" xmlns:xlink="http://www.w3.org/1999/xlink" height="16px" viewBox="0 0 16 16" width="16px"><filter id="a" height="100%" width="100%" x="0%" y="0%"><feColorMatrix color-interpolation-filters="sRGB" values="0 0 0 0 1 0 0 0 0 1 0 0 0 0 1 0 0 0 1 0"/></filter><mask id="b"><g filter="url(#a)"><path d="m -1.6 -1.6 h 19.2 v 19.2 h -19.2 z" fill-opacity="0.5"/></g></mask><clipPath id="c"><path d="m 0 0 h 1600 v 1200 h -1600 z"/></clipPath><mask id="d"><g filter="url(#a)"><path d="m -1.6 -1.6 h 19.2 v 19.2 h -19.2 z" fill-opacity="0.7"/></g></mask><clipPath id="e"><path d="m 0 0 h 1600 v 1200 h -1600 z"/></clipPath><mask id="f"><g filter="url(#a)"><path d="m -1.6 -1.6 h 19.2 v 19.2 h -19.2 z" fill-opacity="0.35"/></g></mask><clipPath id="g"><path d="m 0 0 h 1600 v 1200 h -1600 z"/></clipPath><g mask="url(#b)"><g clip-path="url(#c)" transform="matrix(1 0 0 1 -620 -160)"><path d="m 550 182 c -0.351562 0.003906 -0.695312 0.101562 -1 0.28125 v 3.4375 c 0.304688 0.179688 0.648438 0.277344 1 0.28125 c 1.105469 0 2 -0.894531 2 -2 s -0.894531 -2 -2 -2 z m 0 5 c -0.339844 0 -0.679688 0.058594 -1 0.175781 v 6.824219 h 4 v -4 c 0 -1.65625 -1.34375 -3 -3 -3 z m 0 0"/></g></g><g mask="url(#d)"><g clip-path="url(#e)" transform="matrix(1 0 0 1 -620 -160)"><path d="m 569 182 v 4 c 1.105469 0 2 -0.894531 2 -2 s -0.894531 -2 -2 -2 z m 0 5 v 7 h 3 v -4 c 0 -1.65625 -1.34375 -3 -3 -3 z m 0 0"/></g></g><g mask="url(#f)"><g clip-path="url(#g)" transform="matrix(1 0 0 1 -620 -160)"><path d="m 573 182.269531 v 3.449219 c 0.613281 -0.355469 0.996094 -1.007812 1 -1.71875 c 0 -0.714844 -0.382812 -1.375 -1 -1.730469 z m 0 4.90625 v 6.824219 h 2 v -4 c 0 -1.269531 -0.800781 -2.402344 -2 -2.824219 z m 0 0"/></g></g><path d="m 4 0 c -2.175781 0 -3.875 1.960938 -3.566406 4.113281 l 1.363281 9.53125 c 0.183594 1.339844 1.339844 2.347657 2.691406 2.355469 h 0.003907 c 1.375 0 2.507812 -1.132812 2.507812 -2.507812 v -2.492188 c 0 -0.5625 0.4375 -1 1 -1 s 1 0.4375 1 1 v 2.488281 c -0.007812 1.367188 1.117188 2.503907 2.484375 2.511719 h 0.007813 c 1.355468 0 2.519531 -1.011719 2.710937 -2.351562 l 1.363281 -9.535157 c 0.308594 -2.152343 -1.390625 -4.113281 -3.566406 -4.113281 h -1 c -1.09375 0 -2 0.90625 -2 2 h -2 c 0 -1.09375 -0.90625 -2 -2 -2 z m 0 2 h 1 c 0 1.09375 0.90625 2 2 2 h 2 c 1.09375 0 2 -0.90625 2 -2 h 1 c 0.992188 0 1.726562 0.84375 1.585938 1.828125 l -1.363282 9.535156 c -0.054687 0.371094 -0.355468 0.632813 -0.726562 0.636719 c -0.285156 -0.003906 -0.496094 -0.214844 -0.496094 -0.5 c 0 -0.003906 0 -0.007812 0 -0.007812 v -2.492188 c 0 -1.644531 -1.355469 -3 -3 -3 s -3 1.355469 -3 3 v 2.492188 c 0 0.292968 -0.214844 0.503906 -0.503906 0.507812 c -0.371094 -0.003906 -0.667969 -0.261719 -0.71875 -0.628906 c 0 -0.003906 0 -0.003906 0 -0.007813 l -1.363282 -9.535156 c -0.140624 -0.984375 0.59375 -1.828125 1.585938 -1.828125 z m 0 0"/></svg>
