<?xml version="1.0" encoding="UTF-8"?>
<svg xmlns="http://www.w3.org/2000/svg" height="16px" viewBox="0 0 16 16" width="16px"><g fill="#2e3436"><path d="m 8.480469 1 l -0.679688 0.960938 c -0.460937 0.660156 -1.214843 1.050781 -2.019531 1.050781 h -4.78125 v 6.988281 c 0 2.199219 1.800781 4 4 4 h 5.183594 c 0.421875 1.195312 1.550781 1.996094 2.816406 2 c 1.65625 0 3 -1.34375 3 -3 v -9 c 0 -1.65625 -1.34375 -3 -3 -3 z m 1.039062 2 h 0.480469 v 9 h -5 c -1.117188 0 -2 -0.882812 -2 -2 v -4.988281 h 2.78125 c 1.453125 0 2.816406 -0.707031 3.65625 -1.898438 z m 0 0"/><path d="m 7.90625 5 h 0.1875 c 0.5 0 0.90625 0.40625 0.90625 0.90625 v 0.1875 c 0 0.5 -0.40625 0.90625 -0.90625 0.90625 h -0.1875 c -0.5 0 -0.90625 -0.40625 -0.90625 -0.90625 v -0.1875 c 0 -0.5 0.40625 -0.90625 0.90625 -0.90625 z m 0 0"/><path d="m 1.8125 0 h 0.375 c 1 0 1.8125 1.015625 1.8125 2.265625 v 0.46875 c 0 1.25 -0.8125 2.265625 -1.8125 2.265625 h -0.375 c -1 0 -1.8125 -1.015625 -1.8125 -2.265625 v -0.46875 c 0 -1.25 0.8125 -2.265625 1.8125 -2.265625 z m 0 0"/></g></svg>
