<?xml version="1.0" encoding="UTF-8"?>
<svg xmlns="http://www.w3.org/2000/svg" xmlns:xlink="http://www.w3.org/1999/xlink" height="16px" viewBox="0 0 16 16" width="16px"><filter id="a" height="100%" width="100%" x="0%" y="0%"><feColorMatrix color-interpolation-filters="sRGB" values="0 0 0 0 1 0 0 0 0 1 0 0 0 0 1 0 0 0 1 0"/></filter><mask id="b"><g filter="url(#a)"><path d="m -1.6 -1.6 h 19.2 v 19.2 h -19.2 z" fill-opacity="0.5"/></g></mask><clipPath id="c"><path d="m 0 0 h 1600 v 1200 h -1600 z"/></clipPath><mask id="d"><g filter="url(#a)"><path d="m -1.6 -1.6 h 19.2 v 19.2 h -19.2 z" fill-opacity="0.7"/></g></mask><clipPath id="e"><path d="m 0 0 h 1600 v 1200 h -1600 z"/></clipPath><mask id="f"><g filter="url(#a)"><path d="m -1.6 -1.6 h 19.2 v 19.2 h -19.2 z" fill-opacity="0.35"/></g></mask><clipPath id="g"><path d="m 0 0 h 1600 v 1200 h -1600 z"/></clipPath><g mask="url(#b)"><g clip-path="url(#c)" transform="matrix(1 0 0 1 -640 -140)"><path d="m 550 182 c -0.351562 0.003906 -0.695312 0.101562 -1 0.28125 v 3.4375 c 0.304688 0.179688 0.648438 0.277344 1 0.28125 c 1.105469 0 2 -0.894531 2 -2 s -0.894531 -2 -2 -2 z m 0 5 c -0.339844 0 -0.679688 0.058594 -1 0.175781 v 6.824219 h 4 v -4 c 0 -1.65625 -1.34375 -3 -3 -3 z m 0 0"/></g></g><g mask="url(#d)"><g clip-path="url(#e)" transform="matrix(1 0 0 1 -640 -140)"><path d="m 569 182 v 4 c 1.105469 0 2 -0.894531 2 -2 s -0.894531 -2 -2 -2 z m 0 5 v 7 h 3 v -4 c 0 -1.65625 -1.34375 -3 -3 -3 z m 0 0"/></g></g><g mask="url(#f)"><g clip-path="url(#g)" transform="matrix(1 0 0 1 -640 -140)"><path d="m 573 182.269531 v 3.449219 c 0.613281 -0.355469 0.996094 -1.007812 1 -1.71875 c 0 -0.714844 -0.382812 -1.375 -1 -1.730469 z m 0 4.90625 v 6.824219 h 2 v -4 c 0 -1.269531 -0.800781 -2.402344 -2 -2.824219 z m 0 0"/></g></g><path d="m 15.207031 3.03125 c 0.257813 0.070312 0.476563 0.238281 0.609375 0.46875 c 0.132813 0.230469 0.167969 0.503906 0.097656 0.757812 l -2.945312 11.003907 c -0.121094 0.433593 -0.515625 0.738281 -0.96875 0.738281 h -8.050781 c -0.453125 0 -0.847657 -0.304688 -0.964844 -0.738281 l -2.953125 -11.003907 c -0.0664062 -0.253906 -0.03125 -0.527343 0.101562 -0.757812 c 0.132813 -0.230469 0.351563 -0.398438 0.605469 -0.46875 c 0.257813 -0.066406 0.53125 -0.03125 0.761719 0.101562 c 0.230469 0.132813 0.398438 0.351563 0.46875 0.609376 l 2.746094 10.257812 h 6.519531 l 2.75 -10.257812 c 0.140625 -0.535157 0.6875 -0.851563 1.222656 -0.710938 z m 0 0"/><path d="m 2 8 h 12 v 1 h -12 z m 0 0" fill="#222222"/><path d="m 7.546875 0.203125 c -1.3125 1.355469 -2.265625 2.949219 -2.265625 3.964844 c 0 1.78125 1.117188 2.832031 2.71875 2.832031 s 2.71875 -1.046875 2.71875 -2.832031 c 0 -1.050781 -0.886719 -2.585938 -2.265625 -3.964844 c -0.453125 -0.453125 -0.90625 0 -0.90625 0 z m 0 0"/></svg>
