<?xml version="1.0" encoding="UTF-8"?>
<svg xmlns="http://www.w3.org/2000/svg" xmlns:xlink="http://www.w3.org/1999/xlink" height="16px" viewBox="0 0 16 16" width="16px"><filter id="a" height="100%" width="100%" x="0%" y="0%"><feColorMatrix color-interpolation-filters="sRGB" values="0 0 0 0 1 0 0 0 0 1 0 0 0 0 1 0 0 0 1 0"/></filter><mask id="b"><g filter="url(#a)"><path d="m -1.6 -1.6 h 19.2 v 19.2 h -19.2 z" fill-opacity="0.5"/></g></mask><clipPath id="c"><path d="m 0 0 h 1600 v 1200 h -1600 z"/></clipPath><mask id="d"><g filter="url(#a)"><path d="m -1.6 -1.6 h 19.2 v 19.2 h -19.2 z" fill-opacity="0.7"/></g></mask><clipPath id="e"><path d="m 0 0 h 1600 v 1200 h -1600 z"/></clipPath><mask id="f"><g filter="url(#a)"><path d="m -1.6 -1.6 h 19.2 v 19.2 h -19.2 z" fill-opacity="0.35"/></g></mask><clipPath id="g"><path d="m 0 0 h 1600 v 1200 h -1600 z"/></clipPath><path d="m 4.433594 13.988281 c -0.269532 0 -0.496094 -0.226562 -0.496094 -0.496093 c 0 -0.265626 0.226562 -0.492188 0.496094 -0.492188 c 0.265625 0 0.492187 0.226562 0.492187 0.492188 c 0 0.269531 -0.226562 0.496093 -0.492187 0.496093 z m 0 -2.988281 c -1.382813 0 -2.496094 1.113281 -2.496094 2.492188 c 0 1.382812 1.113281 2.496093 2.496094 2.496093 c 1.382812 0 2.492187 -1.113281 2.492187 -2.496093 c 0 -1.378907 -1.109375 -2.492188 -2.492187 -2.492188 z m 0 0"/><path d="m 10.015625 12.496094 h -4.011719 c -0.554687 0 -1 0.445312 -1 1 c 0 0.550781 0.445313 1 1 1 h 4.011719 c 0.554687 0 1 -0.449219 1 -1 c 0 -0.554688 -0.445313 -1 -1 -1 z m -7.304687 0 c -0.398438 0 -0.734376 -0.335938 -0.730469 -0.738282 v -3.75 l -1 1 h 11.816406 c 0.652344 0 1.195313 0.539063 1.195313 1.191407 v 1.335937 c 0 0.523438 -0.433594 0.960938 -0.960938 0.960938 c -0.550781 0 -1 0.449218 -0.996094 1 c 0 0.550781 0.445313 1 1 1 c 1.636719 0 2.957032 -1.324219 2.957032 -2.960938 v -1.335937 c 0 -1.765625 -1.425782 -3.191407 -3.195313 -3.191407 h -11.816406 c -0.554688 0 -1.0000002 0.445313 -1.0000002 1 v 3.746094 c -0.0039063 1.515625 1.2109372 2.738282 2.7265622 2.742188 c 0.554688 0 1 -0.445313 1.003907 -1 c 0 -0.550782 -0.445313 -1 -1 -1 z m 0 0"/><path d="m 11.503906 13.988281 c -0.265625 0 -0.492187 -0.226562 -0.492187 -0.496093 c 0 -0.265626 0.226562 -0.492188 0.492187 -0.492188 c 0.269532 0 0.496094 0.226562 0.496094 0.492188 c 0 0.269531 -0.226562 0.496093 -0.496094 0.496093 z m 0 -2.988281 c -1.378906 0 -2.492187 1.113281 -2.492187 2.492188 c 0 1.382812 1.113281 2.496093 2.492187 2.496093 c 1.382813 0 2.496094 -1.113281 2.496094 -2.496093 c 0 -1.378907 -1.113281 -2.492188 -2.496094 -2.492188 z m 0 0"/><path d="m 1.988281 11.964844 v -6.992188 c 0 -0.535156 0.445313 -0.976562 0.980469 -0.976562 h 5.011719 c 0.742187 0 1.410156 0.476562 1.648437 1.179687 l 1.074219 3.152344 c 0.179687 0.519531 0.746094 0.800781 1.269531 0.621094 c 0.523438 -0.179688 0.800782 -0.746094 0.625 -1.269531 l -1.078125 -3.148438 c -0.515625 -1.519531 -1.9375 -2.535156 -3.539062 -2.535156 h -5.011719 c -1.652344 0 -2.9804688 1.328125 -2.9804688 2.976562 v 6.992188 c 0 0.550781 0.4492188 1 0.9999998 1 c 0.554688 0 1 -0.449219 1 -1 z m 0 0"/><g mask="url(#b)"><g clip-path="url(#c)" transform="matrix(1 0 0 1 -560 -120)"><path d="m 550 182 c -0.351562 0.003906 -0.695312 0.101562 -1 0.28125 v 3.4375 c 0.304688 0.179688 0.648438 0.277344 1 0.28125 c 1.105469 0 2 -0.894531 2 -2 s -0.894531 -2 -2 -2 z m 0 5 c -0.339844 0 -0.679688 0.058594 -1 0.175781 v 6.824219 h 4 v -4 c 0 -1.65625 -1.34375 -3 -3 -3 z m 0 0"/></g></g><g mask="url(#d)"><g clip-path="url(#e)" transform="matrix(1 0 0 1 -560 -120)"><path d="m 569 182 v 4 c 1.105469 0 2 -0.894531 2 -2 s -0.894531 -2 -2 -2 z m 0 5 v 7 h 3 v -4 c 0 -1.65625 -1.34375 -3 -3 -3 z m 0 0"/></g></g><g mask="url(#f)"><g clip-path="url(#g)" transform="matrix(1 0 0 1 -560 -120)"><path d="m 573 182.269531 v 3.449219 c 0.613281 -0.355469 0.996094 -1.007812 1 -1.71875 c 0 -0.714844 -0.382812 -1.375 -1 -1.730469 z m 0 4.90625 v 6.824219 h 2 v -4 c 0 -1.269531 -0.800781 -2.402344 -2 -2.824219 z m 0 0"/></g></g></svg>
