<?xml version="1.0" encoding="UTF-8" standalone="no"?>
<svg xmlns="http://www.w3.org/2000/svg" xmlns:svg="http://www.w3.org/2000/svg" xmlns:rdf="http://www.w3.org/1999/02/22-rdf-syntax-ns#" xmlns:cc="http://creativecommons.org/ns#" xmlns:dc="http://purl.org/dc/elements/1.1/" version="1.1" width="16" height="16" id="svg7384" viewBox="0 0 16 16" shape-rendering="crispEdges" xml:space="preserve"><metadata id="metadata90"><rdf:RDF><cc:Work rdf:about=""><dc:format>image/svg+xml</dc:format><dc:type rdf:resource="http://purl.org/dc/dcmitype/StillImage"/><dc:title>Gnome Symbolic Icon Theme</dc:title></cc:Work></rdf:RDF></metadata><title id="title9167">Gnome Symbolic Icon Theme</title><defs id="defs7386"/><g id="layer13" transform="translate(-580,-60)"><g transform="translate(560,-118)" id="g73" style="fill:#222222"><title id="title23">non-religious-cemetary</title><rect transform="rotate(-90)" y="20" x="-194" height="16" width="16" id="rect26" style="fill:none"/><path id="rect73" style="stroke-linecap:round;stroke-linejoin:round;paint-order:markers stroke fill" d="m 22,191 h 12 c 0.554,0 1,0.446 1,1 0,0.554 0,1 0,1 H 21 c 0,0 0,-0.446 0,-1 0,-0.554 0.446,-1 1,-1 z"/><path id="rect74" style="stroke-width:0.909091;stroke-linecap:round;stroke-linejoin:round;paint-order:markers stroke fill" d="m 28,179 c -2.769991,0 -5,2.23 -5,5 v 8 h 10 v -8 c 0,-2.77 -2.230009,-5 -5,-5 z m 0,2 c 1.661994,0 3,1.338 3,3 0,1.662 -1.338006,3 -3,3 -1.661994,0 -3,-1.338 -3,-3 0,-1.662 1.338006,-3 3,-3 z m 0,1 c -1.104569,0 -2,0.89543 -2,2 0,1.10457 0.895431,2 2,2 1.104569,0 2,-0.89543 2,-2 0,-1.10457 -0.895431,-2 -2,-2 z m -2.507616,6 h 5.026367 c 0.277,0 0.5,0.223 0.5,0.5 0,0.277 -0.223,0.5 -0.5,0.5 h -5.026367 c -0.277,0 -0.5,-0.223 -0.5,-0.5 0,-0.277 0.223,-0.5 0.5,-0.5 z m 0,2 h 5.026367 c 0.277,0 0.5,0.223 0.5,0.5 0,0.277 -0.223,0.5 -0.5,0.5 h -5.026367 c -0.277,0 -0.5,-0.223 -0.5,-0.5 0,-0.277 0.223,-0.5 0.5,-0.5 z"/></g></g></svg>
