<?xml version="1.0" encoding="UTF-8"?>
<svg xmlns="http://www.w3.org/2000/svg" xmlns:xlink="http://www.w3.org/1999/xlink" width="16px" height="16px" viewBox="0 0 16 16" version="1.1">
<g id="surface254650">
<path style=" stroke:none;fill-rule:nonzero;fill:rgb(18.039216%,20.392157%,21.176471%);fill-opacity:1;" d="M 3 4 L 3 11.519531 C 3 12.894531 4.105469 14 5.480469 14 L 9.519531 14 C 10.726562 14 11.726562 13.144531 11.949219 12 L 12.207031 12 C 13.738281 12 15 10.738281 15 9.207031 L 15 6.792969 C 15 5.261719 13.738281 4 12.207031 4 L 7 4 L 7 7.5 C 7 8.332031 6.332031 9 5.5 9 C 4.667969 9 4 8.332031 4 7.5 L 4 4 Z M 12 6 L 12.207031 6 C 12.664062 6 13 6.335938 13 6.792969 L 13 9.207031 C 13 9.664062 12.664062 10 12.207031 10 L 12 10 Z M 12 6 "/>
<path style=" stroke:none;fill-rule:nonzero;fill:rgb(18.039216%,20.392157%,21.176471%);fill-opacity:1;" d="M 1 15 L 15 15 L 15 16 L 1 16 Z M 1 15 "/>
<path style=" stroke:none;fill-rule:nonzero;fill:rgb(18.039216%,20.392157%,21.176471%);fill-opacity:1;" d="M 4.296875 1 C 3.1875 1 2.296875 1.890625 2.296875 3 L 5 3 L 5 7.5 C 5 7.777344 5.222656 8 5.5 8 C 5.777344 8 6 7.777344 6 7.5 L 6 3 L 12.019531 3 C 11.675781 2.402344 11.039062 2 10.296875 2 C 9.882812 2 9.496094 2.125 9.175781 2.339844 C 8.90625 1.558594 8.171875 1 7.296875 1 C 6.695312 1 6.164062 1.269531 5.796875 1.6875 C 5.429688 1.269531 4.898438 1 4.296875 1 Z M 4.296875 1 "/>
</g>
</svg>
