<?xml version="1.0" encoding="UTF-8"?>
<svg xmlns="http://www.w3.org/2000/svg" xmlns:xlink="http://www.w3.org/1999/xlink" height="16px" viewBox="0 0 16 16" width="16px"><filter id="a" height="100%" width="100%" x="0%" y="0%"><feColorMatrix color-interpolation-filters="sRGB" values="0 0 0 0 1 0 0 0 0 1 0 0 0 0 1 0 0 0 1 0"/></filter><mask id="b"><g filter="url(#a)"><path d="m -1.6 -1.6 h 19.2 v 19.2 h -19.2 z" fill-opacity="0.5"/></g></mask><clipPath id="c"><path d="m 0 0 h 1600 v 1200 h -1600 z"/></clipPath><mask id="d"><g filter="url(#a)"><path d="m -1.6 -1.6 h 19.2 v 19.2 h -19.2 z" fill-opacity="0.7"/></g></mask><clipPath id="e"><path d="m 0 0 h 1600 v 1200 h -1600 z"/></clipPath><mask id="f"><g filter="url(#a)"><path d="m -1.6 -1.6 h 19.2 v 19.2 h -19.2 z" fill-opacity="0.35"/></g></mask><clipPath id="g"><path d="m 0 0 h 1600 v 1200 h -1600 z"/></clipPath><g mask="url(#b)"><g clip-path="url(#c)" transform="matrix(1 0 0 1 -660 -140)"><path d="m 550 182 c -0.351562 0.003906 -0.695312 0.101562 -1 0.28125 v 3.4375 c 0.304688 0.179688 0.648438 0.277344 1 0.28125 c 1.105469 0 2 -0.894531 2 -2 s -0.894531 -2 -2 -2 z m 0 5 c -0.339844 0 -0.679688 0.058594 -1 0.175781 v 6.824219 h 4 v -4 c 0 -1.65625 -1.34375 -3 -3 -3 z m 0 0"/></g></g><g mask="url(#d)"><g clip-path="url(#e)" transform="matrix(1 0 0 1 -660 -140)"><path d="m 569 182 v 4 c 1.105469 0 2 -0.894531 2 -2 s -0.894531 -2 -2 -2 z m 0 5 v 7 h 3 v -4 c 0 -1.65625 -1.34375 -3 -3 -3 z m 0 0"/></g></g><g mask="url(#f)"><g clip-path="url(#g)" transform="matrix(1 0 0 1 -660 -140)"><path d="m 573 182.269531 v 3.449219 c 0.613281 -0.355469 0.996094 -1.007812 1 -1.71875 c 0 -0.714844 -0.382812 -1.375 -1 -1.730469 z m 0 4.90625 v 6.824219 h 2 v -4 c 0 -1.269531 -0.800781 -2.402344 -2 -2.824219 z m 0 0"/></g></g><g fill="#2e3436"><path d="m 1 3 h 14 c 0.550781 0 1 0.449219 1 1 s -0.449219 1 -1 1 h -14 c -0.550781 0 -1 -0.449219 -1 -1 s 0.449219 -1 1 -1 z m 0 0"/><path d="m 4 4 v -1.5 c 0 -1.386719 1.113281 -2.5 2.5 -2.5 h 2.980469 c 1.382812 0 2.5 1.113281 2.5 2.5 v 1.5 h -2 v -1.5 c 0 -0.269531 -0.230469 -0.5 -0.5 -0.5 h -2.980469 c -0.269531 0 -0.5 0.230469 -0.5 0.5 v 1.5 z m 0 0"/><path d="m 4 4 v 9 c 0 0.546875 0.453125 1 1 1 h 6 c 0.546875 0 1 -0.453125 1 -1 v -9 h 2 v 9 c 0 1.660156 -1.339844 3 -3 3 h -6 c -1.660156 0 -3 -1.339844 -3 -3 v -9 z m 0 0"/><path d="m 6.824219 12 h -1.355469 c -0.179688 0 -0.347656 -0.097656 -0.4375 -0.253906 c -0.085938 -0.160156 -0.082031 -0.351563 0.011719 -0.507813 l 1.195312 -1.957031 l 0.851563 0.523438 l -1.195313 1.957031 l -0.425781 -0.761719 h 1.355469 z m 3.300781 -1.996094 l 0.769531 1.230469 c 0.09375 0.15625 0.097657 0.351563 0.011719 0.507813 c -0.089844 0.160156 -0.257812 0.257812 -0.4375 0.257812 h -2.632812 v -1 h 2.632812 l -0.425781 0.765625 l -0.765625 -1.234375 z m -3.300781 -1.6875 l 0.644531 -1.074218 c 0.085938 -0.144532 0.242188 -0.238282 0.414062 -0.242188 c 0.171876 -0.003906 0.332032 0.078125 0.425782 0.222656 l 1.273437 1.886719 l -0.828125 0.558594 l -1.273437 -1.886719 l 0.84375 -0.023438 l -0.644531 1.074219 z m 0 0"/></g></svg>
