<?xml version="1.0" encoding="UTF-8"?>
<svg height="16px" viewBox="0 0 16 16" width="16px" xmlns="http://www.w3.org/2000/svg">
    <path d="m 8.261719 5.003906 l -1.867188 0.019532 c -0.417969 0.003906 -0.816406 0.183593 -1.089843 0.5 l -0.839844 0.957031 c -0.277344 0.316406 -0.496094 0.6875 -0.640625 1.085937 l -0.78125 2.1875 c -0.257813 0.492188 0.015625 1.179688 0.542969 1.359375 c 0.527343 0.175781 1.175781 -0.210937 1.269531 -0.757812 l 0.796875 -2.164063 c 0.054687 -0.152344 0.136718 -0.292968 0.242187 -0.414062 l 0.105469 -0.117188 v 2.980469 l -2.023438 3.886719 c -0.253906 0.488281 -0.0625 1.09375 0.425782 1.347656 c 0.488281 0.253906 1.09375 0.066406 1.347656 -0.421875 l 2.015625 -3.824219 l -0.144531 -0.441406 l 0.230468 0.410156 l 2.0625 3.863282 c 0.25 0.488281 0.851563 0.683593 1.34375 0.4375 c 0.414063 -0.210938 0.628907 -0.679688 0.515626 -1.132813 l 0.007812 -0.003906 l -0.011719 -0.027344 c -0.019531 -0.0625 -0.042969 -0.125 -0.074219 -0.183594 l -2.03125 -3.996093 c -0.011718 -0.011719 -0.019531 -0.027344 -0.03125 -0.042969 l -0.632812 -1.25 v -1.695313 l 2.269531 2.027344 c 0.367188 0.382812 1.070313 0.367188 1.421875 -0.035156 c 0.351563 -0.402344 0.277344 -1.101563 -0.152344 -1.417969 l -2.988281 -2.65625 c -0.355469 -0.3125 -0.8125 -0.484375 -1.289062 -0.480469 z m 0 0"/>
    <path d="m 10.054688 1.976562 c 0 1.070313 -0.867188 1.933594 -1.9375 1.933594 c -1.066407 0 -1.933594 -0.863281 -1.933594 -1.933594 c 0 -1.070312 0.867187 -1.9335932 1.933594 -1.9335932 c 1.070312 0 1.9375 0.8632812 1.9375 1.9335932 z m 0 0"/>
</svg>
