<?xml version="1.0" encoding="UTF-8" standalone="no"?>
<!-- Created with Inkscape (http://www.inkscape.org/) -->

<svg
   xmlns:dc="http://purl.org/dc/elements/1.1/"
   xmlns:cc="http://creativecommons.org/ns#"
   xmlns:rdf="http://www.w3.org/1999/02/22-rdf-syntax-ns#"
   xmlns:svg="http://www.w3.org/2000/svg"
   xmlns="http://www.w3.org/2000/svg"
   xmlns:sodipodi="http://sodipodi.sourceforge.net/DTD/sodipodi-0.dtd"
   xmlns:inkscape="http://www.inkscape.org/namespaces/inkscape"
   width="16"
   height="16"
   viewBox="0 0 16 16"
   id="svg5027"
   version="1.1"
   inkscape:version="0.91 r13725"
   sodipodi:docname="hicolor_apps_16x16_route-transit-cablecar-symbolic.svg">
  <defs
     id="defs5029" />
  <sodipodi:namedview
     id="base"
     pagecolor="#ffffff"
     bordercolor="#666666"
     borderopacity="1.0"
     inkscape:pageopacity="0.0"
     inkscape:pageshadow="2"
     inkscape:zoom="45.254834"
     inkscape:cx="6.5717867"
     inkscape:cy="7.3307266"
     inkscape:document-units="px"
     inkscape:current-layer="layer1"
     showgrid="true"
     units="px"
     inkscape:snap-bbox="true"
     inkscape:bbox-paths="true"
     inkscape:bbox-nodes="true"
     inkscape:window-width="1920"
     inkscape:window-height="1016"
     inkscape:window-x="0"
     inkscape:window-y="27"
     inkscape:window-maximized="1">
    <inkscape:grid
       type="xygrid"
       id="grid5575" />
  </sodipodi:namedview>
  <metadata
     id="metadata5032">
    <rdf:RDF>
      <cc:Work
         rdf:about="">
        <dc:format>image/svg+xml</dc:format>
        <dc:type
           rdf:resource="http://purl.org/dc/dcmitype/StillImage" />
        <dc:title></dc:title>
      </cc:Work>
    </rdf:RDF>
  </metadata>
  <g
     inkscape:label="Layer 1"
     inkscape:groupmode="layer"
     id="layer1"
     transform="translate(0,-1036.3622)">
    <path
       style="opacity:1;fill:#2e3436;fill-opacity:1;stroke:none;stroke-width:1;stroke-linecap:butt;stroke-linejoin:miter;stroke-miterlimit:4;stroke-dasharray:none;stroke-dashoffset:0;stroke-opacity:1"
       d="m 5,1037.3622 0,1 -3,0 0,2.0313 1,0 0,6.9843 c 0,0.5631 0.452525,1.0157 1.015625,1.0157 l 0.988281,0 0,1 6,0 0,-1 0.984375,0 c 0.5592,0 1.011719,-0.4526 1.011719,-1.0157 l 0,-6.9843 1,0 0,-2.0313 -3,0 0,-1 -6,0 z m -1,3.0313 2,0 0,3 -2,0 0,-3 z m 3,0 2,0 0,3 -2,0 0,-3 z m 3,0 2,0 0,3 -2,0 0,-3 z m -2,5 a 1,1 0 0 1 1,1 1,1 0 0 1 -1,1 1,1 0 0 1 -1,-1 1,1 0 0 1 1,-1 z m -3.634766,4.996 -1.152343,1.1387 c -0.4753,0.4687 0.227825,1.1816 0.703125,0.7129 l 1.871093,-1.8516 -1.421875,0 z m 5.902344,0 1.871094,1.8516 c 0.4752,0.4687 1.178325,-0.2442 0.703125,-0.7129 l -1.152344,-1.1387 -1.421875,0 z"
       id="rect4196-0"
       inkscape:connector-curvature="0" />
  </g>
</svg>
