<?xml version="1.0" encoding="UTF-8" standalone="no"?>
<!-- Created with Inkscape (http://www.inkscape.org/) -->

<svg
   xmlns:dc="http://purl.org/dc/elements/1.1/"
   xmlns:cc="http://creativecommons.org/ns#"
   xmlns:rdf="http://www.w3.org/1999/02/22-rdf-syntax-ns#"
   xmlns:svg="http://www.w3.org/2000/svg"
   xmlns="http://www.w3.org/2000/svg"
   xmlns:sodipodi="http://sodipodi.sourceforge.net/DTD/sodipodi-0.dtd"
   xmlns:inkscape="http://www.inkscape.org/namespaces/inkscape"
   width="16"
   height="16"
   viewBox="0 0 16 16"
   id="svg5027"
   version="1.1"
   inkscape:version="0.91 r13725"
   sodipodi:docname="hicolor_apps_16x16_route-transit-subway-symbolic.svg">
  <defs
     id="defs5029" />
  <sodipodi:namedview
     id="base"
     pagecolor="#ffffff"
     bordercolor="#666666"
     borderopacity="1.0"
     inkscape:pageopacity="0.0"
     inkscape:pageshadow="2"
     inkscape:zoom="32"
     inkscape:cx="9.5148294"
     inkscape:cy="8.3344636"
     inkscape:document-units="px"
     inkscape:current-layer="layer1"
     showgrid="false"
     units="px"
     inkscape:snap-bbox="true"
     inkscape:bbox-paths="true"
     inkscape:bbox-nodes="true"
     inkscape:window-width="1920"
     inkscape:window-height="1016"
     inkscape:window-x="0"
     inkscape:window-y="27"
     inkscape:window-maximized="1">
    <inkscape:grid
       type="xygrid"
       id="grid5575" />
  </sodipodi:namedview>
  <metadata
     id="metadata5032">
    <rdf:RDF>
      <cc:Work
         rdf:about="">
        <dc:format>image/svg+xml</dc:format>
        <dc:type
           rdf:resource="http://purl.org/dc/dcmitype/StillImage" />
        <dc:title></dc:title>
      </cc:Work>
    </rdf:RDF>
  </metadata>
  <g
     inkscape:label="Layer 1"
     inkscape:groupmode="layer"
     id="layer1"
     transform="translate(0,-1036.3622)">
    <path
       style="opacity:1;fill:#2e3436;fill-opacity:1;stroke:none;stroke-width:1;stroke-linecap:round;stroke-linejoin:round;stroke-miterlimit:4;stroke-dasharray:none;stroke-dashoffset:0;stroke-opacity:1"
       d="m 4.0625,1037.3613 c -1.1426,0 -2.0625,0.9199 -2.0625,2.0625 l 0,7.875 c 0,1.1427 0.9199,2.0625 2.0625,2.0625 l 7.875,0 c 1.1426,0 2.0625,-0.9198 2.0625,-2.0625 l 0,-7.875 c 0,-1.1426 -0.9199,-2.0625 -2.0625,-2.0625 l -7.875,0 z m 2.005859,1.9942 3.853516,0 c 1.1426,0 2.0625,0.9198 2.0625,2.0625 l 0,1.875 c 0,1.1426 -0.9199,2.0625 -2.0625,2.0625 l -3.853516,0 c -1.1426,0 -2.0625,-0.9199 -2.0625,-2.0625 l 0,-1.875 c 0,-1.1427 0.9199,-2.0625 2.0625,-2.0625 z M 5,1046.3613 c 0.5523,0 1,0.4478 1,1 0,0.5523 -0.4477,1 -1,1 -0.5523,0 -1,-0.4477 -1,-1 0,-0.5522 0.4477,-1 1,-1 z m 6,0 c 0.5523,0 1,0.4478 1,1 0,0.5523 -0.4477,1 -1,1 -0.5523,0 -1,-0.4477 -1,-1 0,-0.5522 0.4477,-1 1,-1 z m -6.634766,3.9961 -1.152343,1.1387 c -0.4753,0.4687 0.227825,1.1816 0.703125,0.7129 l 1.871093,-1.8516 -1.421875,0 z m 5.902344,0 1.871094,1.8516 c 0.4752,0.4687 1.178325,-0.2442 0.703125,-0.7129 l -1.152344,-1.1387 -1.421875,0 z"
       id="rect5154-8-2-7-9-8-5-2-33-4-4-4"
       inkscape:connector-curvature="0" />
  </g>
</svg>
