<?xml version="1.0" encoding="UTF-8" standalone="no"?>
<!-- Created with Inkscape (http://www.inkscape.org/) -->

<svg
   xmlns:dc="http://purl.org/dc/elements/1.1/"
   xmlns:cc="http://creativecommons.org/ns#"
   xmlns:rdf="http://www.w3.org/1999/02/22-rdf-syntax-ns#"
   xmlns:svg="http://www.w3.org/2000/svg"
   xmlns="http://www.w3.org/2000/svg"
   xmlns:sodipodi="http://sodipodi.sourceforge.net/DTD/sodipodi-0.dtd"
   xmlns:inkscape="http://www.inkscape.org/namespaces/inkscape"
   width="16"
   height="16"
   viewBox="0 0 16 16"
   id="svg5027"
   version="1.1"
   inkscape:version="0.91 r13725"
   sodipodi:docname="hicolor_apps_16x16_route-transit-train-symbolic.svg">
  <defs
     id="defs5029" />
  <sodipodi:namedview
     id="base"
     pagecolor="#ffffff"
     bordercolor="#666666"
     borderopacity="1.0"
     inkscape:pageopacity="0.0"
     inkscape:pageshadow="2"
     inkscape:zoom="32"
     inkscape:cx="9.5148294"
     inkscape:cy="8.3344636"
     inkscape:document-units="px"
     inkscape:current-layer="layer1"
     showgrid="true"
     units="px"
     inkscape:snap-bbox="true"
     inkscape:bbox-paths="true"
     inkscape:bbox-nodes="true"
     inkscape:window-width="1920"
     inkscape:window-height="1016"
     inkscape:window-x="0"
     inkscape:window-y="27"
     inkscape:window-maximized="1">
    <inkscape:grid
       type="xygrid"
       id="grid5575" />
  </sodipodi:namedview>
  <metadata
     id="metadata5032">
    <rdf:RDF>
      <cc:Work
         rdf:about="">
        <dc:format>image/svg+xml</dc:format>
        <dc:type
           rdf:resource="http://purl.org/dc/dcmitype/StillImage" />
        <dc:title></dc:title>
      </cc:Work>
    </rdf:RDF>
  </metadata>
  <g
     inkscape:label="Layer 1"
     inkscape:groupmode="layer"
     id="layer1"
     transform="translate(0,-1036.3622)">
    <path
       style="opacity:1;fill:#2e3436;fill-opacity:1;stroke:none;stroke-width:1;stroke-linecap:round;stroke-linejoin:round;stroke-miterlimit:4;stroke-dasharray:none;stroke-dashoffset:0;stroke-opacity:1"
       d="M 6.4316406 0.04296875 C 3.9763407 0.04296875 2 1.8548687 2 4.1054688 L 2 10.941406 C 2 12.080906 2.9171406 13 4.0566406 13 L 11.943359 13 C 13.082859 13 14 12.080906 14 10.941406 L 14 4.1054688 C 14 1.8548687 12.023659 0.04296875 9.5683594 0.04296875 L 6.4316406 0.04296875 z M 6.953125 2 L 7 2 L 7 5.9941406 L 4 7.0253906 L 4 5.1523438 C 4 3.4053437 5.3162251 2 6.953125 2 z M 9 2 L 9.0449219 2 C 10.681822 2 12 3.4053438 12 5.1523438 L 12 7.0253906 L 9 5.9941406 L 9 2 z M 5 9 A 1.0000052 1.0000052 0 0 1 6 10 A 1.0000052 1.0000052 0 0 1 5 11 A 1.0000052 1.0000052 0 0 1 4 10 A 1.0000052 1.0000052 0 0 1 5 9 z M 11 9 A 1.0000052 1.0000052 0 0 1 12 10 A 1.0000052 1.0000052 0 0 1 11 11 A 1.0000052 1.0000052 0 0 1 10 10 A 1.0000052 1.0000052 0 0 1 11 9 z M 2.3105469 14 L 1.1582031 15.138672 C 0.68300312 15.607372 1.3860281 16.320262 1.8613281 15.851562 L 3.7324219 14 L 2.3105469 14 z M 12.283203 14 L 14.154297 15.851562 C 14.629597 16.320262 15.332622 15.607372 14.857422 15.138672 L 13.705078 14 L 12.283203 14 z "
       transform="translate(0,1036.3622)"
       id="rect5154-8-2-7-9-8-5-2-6-8-1-6" />
  </g>
</svg>
