<?xml version="1.0" encoding="UTF-8"?>
<svg height="16px" viewBox="0 0 16 16" width="16px" xmlns="http://www.w3.org/2000/svg">
    <path d="m 12.757812 9.929688 c 0.246094 0.328124 0.25 0.785156 0 1.113281 l -1.652343 2.195312 c -0.359375 0.480469 -0.925781 0.761719 -1.527344 0.761719 h -2.546875 c -0.597656 0 -1.164062 -0.28125 -1.527344 -0.761719 l -1.652344 -2.195312 c -0.246093 -0.328125 -0.246093 -0.785157 0.003907 -1.113281 l 1.644531 -2.167969 c 0.363281 -0.480469 0.929688 -0.761719 1.53125 -0.761719 h 2.546875 c 0.601563 0 1.171875 0.28125 1.535156 0.761719 z m -3.179687 -4.929688 h -2.546875 c -1.226562 0 -2.382812 0.574219 -3.125 1.554688 l -1.644531 2.167968 c -0.792969 1.042969 -0.796875 2.476563 -0.007813 3.523438 l 1.652344 2.195312 c 0.742188 0.980469 1.898438 1.558594 3.125 1.558594 h 2.546875 c 1.230469 0 2.386719 -0.578125 3.125 -1.558594 l 1.652344 -2.195312 c 0.789062 -1.046875 0.785156 -2.480469 -0.003907 -3.523438 l -1.644531 -2.167968 c -0.742187 -0.980469 -1.898437 -1.554688 -3.128906 -1.554688 z m 0 0"/>
    <path d="m 3 10 h 10 v 1 h -10 z m 0 0" fill-rule="evenodd"/>
    <path d="m 8 11 v -8 h 1 v 8 z m 0 0" fill-rule="evenodd"/>
    <path d="m 15.089844 0.507812 c -0.066406 -0.011718 -0.132813 -0.011718 -0.195313 0.003907 l -5.179687 1.109375 c -0.28125 -0.390625 -0.734375 -0.621094 -1.214844 -0.621094 c -0.710938 0 -1.320312 0.5 -1.464844 1.195312 l -6.140625 1.316407 c -0.269531 0.058593 -0.441406 0.324219 -0.382812 0.59375 c 0.058593 0.269531 0.324219 0.441406 0.59375 0.382812 l 6.066406 -1.300781 c 0.257813 0.5 0.769531 0.8125 1.328125 0.8125 c 0.792969 0 1.449219 -0.621094 1.492188 -1.417969 l 5.113281 -1.09375 c 0.269531 -0.058593 0.441406 -0.324219 0.382812 -0.59375 c -0.042969 -0.199219 -0.199219 -0.351562 -0.398437 -0.386719 z m -6.589844 1.492188 c 0.277344 0 0.5 0.222656 0.5 0.5 s -0.222656 0.5 -0.5 0.5 s -0.5 -0.222656 -0.5 -0.5 s 0.222656 -0.5 0.5 -0.5 z m 0 0"/>
</svg>
