<?xml version="1.0" encoding="UTF-8" standalone="no"?>
<!-- Created with Inkscape (http://www.inkscape.org/) -->

<svg
   xmlns:dc="http://purl.org/dc/elements/1.1/"
   xmlns:cc="http://creativecommons.org/ns#"
   xmlns:rdf="http://www.w3.org/1999/02/22-rdf-syntax-ns#"
   xmlns:svg="http://www.w3.org/2000/svg"
   xmlns="http://www.w3.org/2000/svg"
   xmlns:sodipodi="http://sodipodi.sourceforge.net/DTD/sodipodi-0.dtd"
   xmlns:inkscape="http://www.inkscape.org/namespaces/inkscape"
   width="16"
   height="16"
   viewBox="0 0 16 16"
   id="svg5027"
   version="1.1"
   inkscape:version="0.91 r13725"
   sodipodi:docname="hicolor_apps_16x16_route-transit-gondolalift-symbolic.svg">
  <defs
     id="defs5029" />
  <sodipodi:namedview
     id="base"
     pagecolor="#ffffff"
     bordercolor="#666666"
     borderopacity="1.0"
     inkscape:pageopacity="0.0"
     inkscape:pageshadow="2"
     inkscape:zoom="32"
     inkscape:cx="5.0983095"
     inkscape:cy="5.573263"
     inkscape:document-units="px"
     inkscape:current-layer="layer1"
     showgrid="true"
     units="px"
     inkscape:snap-bbox="true"
     inkscape:bbox-paths="true"
     inkscape:bbox-nodes="true"
     inkscape:window-width="1920"
     inkscape:window-height="1016"
     inkscape:window-x="0"
     inkscape:window-y="27"
     inkscape:window-maximized="1">
    <inkscape:grid
       type="xygrid"
       id="grid5575" />
  </sodipodi:namedview>
  <metadata
     id="metadata5032">
    <rdf:RDF>
      <cc:Work
         rdf:about="">
        <dc:format>image/svg+xml</dc:format>
        <dc:type
           rdf:resource="http://purl.org/dc/dcmitype/StillImage" />
        <dc:title></dc:title>
      </cc:Work>
    </rdf:RDF>
  </metadata>
  <g
     inkscape:label="Layer 1"
     inkscape:groupmode="layer"
     id="layer1"
     transform="translate(0,-1036.3622)">
    <path
       style="opacity:1;fill:#2e3436;fill-opacity:1;stroke:none;stroke-width:1;stroke-linecap:butt;stroke-linejoin:miter;stroke-miterlimit:4;stroke-dasharray:none;stroke-dashoffset:0;stroke-opacity:1"
       d="M 14.478516 0 L 14.478516 0.001953125 A 0.50005 0.50005 0 0 0 14.345703 0.0234375 L 1.359375 4.0195312 A 0.50005 0.50005 0 1 0 1.6542969 4.9746094 L 14.640625 0.97851562 A 0.50005 0.50005 0 0 0 14.478516 0 z M 9.3984375 3.59375 L 7.4511719 4.1933594 L 7 6 L 4.015625 6 C 2.899025 6 2 6.898925 2 8.015625 L 2 12.984375 C 2 14.101075 2.899025 15 4.015625 15 L 12.984375 15 C 14.100975 15 15 14.101075 15 12.984375 L 15 8.015625 C 15 6.898925 14.100975 6 12.984375 6 L 10 6 L 9.3984375 3.59375 z M 3.1328125 8 L 6 8 L 6 11 L 3.1328125 11 L 3.1328125 8 z M 7 8 L 10 8 L 10 11 L 7 11 L 7 8 z M 11 8 L 14 8 L 14 11 L 11 11 L 11 8 z "
       transform="translate(0,1036.3622)"
       id="rect5121-7" />
  </g>
</svg>
