<?xml version="1.0" encoding="UTF-8" standalone="no"?>
<!-- Created with Inkscape (http://www.inkscape.org/) -->

<svg
   xmlns:dc="http://purl.org/dc/elements/1.1/"
   xmlns:cc="http://creativecommons.org/ns#"
   xmlns:rdf="http://www.w3.org/1999/02/22-rdf-syntax-ns#"
   xmlns:svg="http://www.w3.org/2000/svg"
   xmlns="http://www.w3.org/2000/svg"
   xmlns:sodipodi="http://sodipodi.sourceforge.net/DTD/sodipodi-0.dtd"
   xmlns:inkscape="http://www.inkscape.org/namespaces/inkscape"
   width="16"
   height="16"
   viewBox="0 0 4.2333332 4.2333332"
   version="1.1"
   id="svg821"
   inkscape:version="0.92.2 (5c3e80d, 2017-08-06)"
   sodipodi:docname="tourist-train.svg">
  <defs
     id="defs815" />
  <sodipodi:namedview
     id="base"
     pagecolor="#ffffff"
     bordercolor="#666666"
     borderopacity="1.0"
     inkscape:pageopacity="0.0"
     inkscape:pageshadow="2"
     inkscape:zoom="16"
     inkscape:cx="4.1106061"
     inkscape:cy="12.921971"
     inkscape:document-units="mm"
     inkscape:current-layer="layer1"
     inkscape:document-rotation="0"
     showgrid="true"
     units="px"
     inkscape:snap-bbox="true"
     inkscape:snap-nodes="false"
     inkscape:bbox-paths="true"
     inkscape:bbox-nodes="true"
     inkscape:window-width="1920"
     inkscape:window-height="1016"
     inkscape:window-x="0"
     inkscape:window-y="27"
     inkscape:window-maximized="1">
    <inkscape:grid
       type="xygrid"
       id="grid1366" />
  </sodipodi:namedview>
  <metadata
     id="metadata818">
    <rdf:RDF>
      <cc:Work
         rdf:about="">
        <dc:format>image/svg+xml</dc:format>
        <dc:type
           rdf:resource="http://purl.org/dc/dcmitype/StillImage" />
        <dc:title />
      </cc:Work>
    </rdf:RDF>
  </metadata>
  <g
     inkscape:label="Layer 1"
     inkscape:groupmode="layer"
     id="layer1"
     transform="translate(0,-292.76667)">
    <path
       style="color:#000000;overflow:visible;vector-effect:none;fill:#000000;stroke-width:0.26458335;stroke-linecap:round;stroke-linejoin:round"
       d="m 3.9723673,293.03125 v 0.52917 H 3.7077839 v 0.79375 h 0.2697509 c 0.1437548,0 0.2594158,0.11566 0.2594158,0.25941 v 1.33325 c 0,0.14376 -0.1156613,0.25977 -0.2594158,0.25994 h -0.00517 a 0.79374991,0.79374991 0 0 0 0,-5.2e-4 0.79374991,0.79374991 0 0 0 -0.79375,-0.79375 0.79374991,0.79374991 0 0 0 -0.7937499,0.7922 h -0.00775 l -0.2568319,0.003 a 0.79374991,0.79374991 0 0 0 0,-0.002 0.79374991,0.79374991 0 0 0 -0.79375,-0.79375 0.79374991,0.79374991 0 0 0 -0.79374997,0.79375 h -0.2645844 -0.2645833 v -0.52862 h 0.2645833 v -2.11666 H -6.6666665e-8 v -0.52917 H 1.8557006 c 0.1465813,0 0.2645833,0.118 0.2645833,0.26458 v 1.05834 h 0.79375 v -0.79375 H 2.6494506 v -0.52917 h 0.2645833 0.79375 z m -2.38125,0.79375 H 0.79736733 v 0.79375 H 1.5911173 Z m 1.5874999,1.85208 a 0.52917063,0.52917063 0 0 1 0.5291667,0.52917 0.52917063,0.52917063 0 0 1 -0.5291667,0.52917 0.52917063,0.52917063 0 0 1 -0.5291666,-0.52917 0.52917063,0.52917063 0 0 1 0.5291666,-0.52917 z m -1.8520833,0 a 0.52917063,0.52917063 0 0 1 0.5291667,0.52917 0.52917063,0.52917063 0 0 1 -0.5291667,0.52917 0.52917063,0.52917063 0 0 1 -0.52916657,-0.52917 0.52917063,0.52917063 0 0 1 0.52916657,-0.52917 z"
       id="rect1368"
       inkscape:connector-curvature="0" />
  </g>
</svg>
