<?xml version="1.0" encoding="UTF-8"?>
<svg xmlns="http://www.w3.org/2000/svg" xmlns:xlink="http://www.w3.org/1999/xlink" height="16px" viewBox="0 0 16 16" width="16px"><filter id="a" height="100%" width="100%" x="0%" y="0%"><feColorMatrix color-interpolation-filters="sRGB" values="0 0 0 0 1 0 0 0 0 1 0 0 0 0 1 0 0 0 1 0"/></filter><mask id="b"><g filter="url(#a)"><path d="m -1.6 -1.6 h 19.2 v 19.2 h -19.2 z" fill-opacity="0.5"/></g></mask><clipPath id="c"><path d="m 0 0 h 1600 v 1200 h -1600 z"/></clipPath><mask id="d"><g filter="url(#a)"><path d="m -1.6 -1.6 h 19.2 v 19.2 h -19.2 z" fill-opacity="0.7"/></g></mask><clipPath id="e"><path d="m 0 0 h 1600 v 1200 h -1600 z"/></clipPath><mask id="f"><g filter="url(#a)"><path d="m -1.6 -1.6 h 19.2 v 19.2 h -19.2 z" fill-opacity="0.35"/></g></mask><clipPath id="g"><path d="m 0 0 h 1600 v 1200 h -1600 z"/></clipPath><g mask="url(#b)"><g clip-path="url(#c)" transform="matrix(1 0 0 1 -40 -780)"><path d="m 550 182 c -0.351562 0.003906 -0.695312 0.101562 -1 0.28125 v 3.4375 c 0.304688 0.179688 0.648438 0.277344 1 0.28125 c 1.105469 0 2 -0.894531 2 -2 s -0.894531 -2 -2 -2 z m 0 5 c -0.339844 0 -0.679688 0.058594 -1 0.175781 v 6.824219 h 4 v -4 c 0 -1.65625 -1.34375 -3 -3 -3 z m 0 0"/></g></g><g mask="url(#d)"><g clip-path="url(#e)" transform="matrix(1 0 0 1 -40 -780)"><path d="m 569 182 v 4 c 1.105469 0 2 -0.894531 2 -2 s -0.894531 -2 -2 -2 z m 0 5 v 7 h 3 v -4 c 0 -1.65625 -1.34375 -3 -3 -3 z m 0 0"/></g></g><g mask="url(#f)"><g clip-path="url(#g)" transform="matrix(1 0 0 1 -40 -780)"><path d="m 573 182.269531 v 3.449219 c 0.613281 -0.355469 0.996094 -1.007812 1 -1.71875 c 0 -0.714844 -0.382812 -1.375 -1 -1.730469 z m 0 4.90625 v 6.824219 h 2 v -4 c 0 -1.269531 -0.800781 -2.402344 -2 -2.824219 z m 0 0"/></g></g><path d="m 14 0 l -0.824219 1.644531 c -0.664062 -0.429687 -1.445312 -0.660156 -2.246093 -0.644531 c -0.082032 0 -0.152344 0.003906 -0.21875 0.011719 c -0.957032 0.066406 -1.859376 0.480469 -2.539063 1.160156 l -6 6 c -1.351563 1.351563 -1.527344 3.457031 -0.527344 5.003906 l -1.644531 0.824219 l 2 2 l 0.824219 -1.644531 c 1.546875 1 3.652343 0.824219 5.003906 -0.527344 l 6 -6 c 1.351563 -1.351563 1.527344 -3.457031 0.527344 -5.003906 l 1.644531 -0.824219 z m -3.035156 3 c 0.539062 -0.007812 1.0625 0.199219 1.449218 0.585938 c 0.789063 0.789062 0.789063 2.039062 0 2.828124 l -6 6 c -0.789062 0.789063 -2.039062 0.789063 -2.828124 0 c -0.789063 -0.789062 -0.789063 -2.039062 0 -2.828124 l 1 -1 l 1.414062 1.414062 l 4 -4 l -1.414062 -1.414062 l 1 -1 c 0.339843 -0.339844 0.792968 -0.546876 1.273437 -0.578126 c 0.042969 -0.003906 0.078125 -0.007812 0.105469 -0.007812 z m 0 0" fill="#222222"/></svg>
