<?xml version="1.0" encoding="UTF-8"?>
<svg xmlns="http://www.w3.org/2000/svg" xmlns:xlink="http://www.w3.org/1999/xlink" width="16px" height="16px" viewBox="0 0 16 16" version="1.1">
<g id="surface216818">
<path style=" stroke:none;fill-rule:nonzero;fill:rgb(18.039216%,20.392157%,21.176471%);fill-opacity:1;" d="M 0 14.972656 L 0 16 L 16 16 L 16 14.972656 Z M 0 14.972656 "/>
<path style=" stroke:none;fill-rule:nonzero;fill:rgb(18.039216%,20.392157%,21.176471%);fill-opacity:1;" d="M 4.554688 10 L 3 11 L 3 15 L 6 15 L 6 11 Z M 4 12 L 5 12 L 5 13 L 4 13 Z M 4 12 "/>
<path style=" stroke:none;fill-rule:nonzero;fill:rgb(18.039216%,20.392157%,21.176471%);fill-opacity:1;" d="M 8 7.800781 L 6 9.800781 L 6 15 L 10 15 L 10 9.800781 Z M 7 11 L 9 11 L 9 12 L 7 12 Z M 7 11 "/>
<path style=" stroke:none;fill-rule:nonzero;fill:rgb(18.039216%,20.392157%,21.176471%);fill-opacity:1;" d="M 12 4 L 10 6 L 10 15 L 14 15 L 14 6 Z M 12 6.8125 C 12.65625 6.8125 13.1875 7.34375 13.1875 8 C 13.1875 8.65625 12.65625 9.1875 12 9.1875 C 11.34375 9.1875 10.8125 8.65625 10.8125 8 C 10.8125 7.34375 11.34375 6.8125 12 6.8125 Z M 12 6.8125 "/>
</g>
</svg>
