<svg xmlns="http://www.w3.org/2000/svg" width="16" height="16.012">
    <g fill="#2e3436">
        <path d="M5 7.037a4.5 4.5 0 00-3.658 2.74 4.506 4.506 0 00.977 4.905 4.506 4.506 0 004.904.976A4.5 4.5 0 009.963 12h-2.02a2.494 2.494 0 01-4.21 1.268A2.494 2.494 0 015 9.057z" style="line-height:normal;font-variant-ligatures:normal;font-variant-position:normal;font-variant-caps:normal;font-variant-numeric:normal;font-variant-alternates:normal;font-feature-settings:normal;text-indent:0;text-align:start;text-decoration-line:none;text-decoration-style:solid;text-decoration-color:#000;text-transform:none;text-orientation:mixed;white-space:normal;shape-padding:0;isolation:auto;mix-blend-mode:normal;solid-color:#000;solid-opacity:1" color="#000" font-weight="400" font-family="sans-serif" overflow="visible"/>
        <path d="M10 7L9 5H7S6 5 6 6v3c0 2 2 2 2 2h2z"/>
        <path d="M9 9a1 1 0 100 2h1.434l2.709 4.514a1 1 0 101.715-1.028L11.567 9zM8.99 4.99a1 1 0 00-.697 1.717L9.586 8H13a1 1 0 100-2h-2.586l-.707-.707a1 1 0 00-.716-.303z" style="line-height:normal;font-variant-ligatures:normal;font-variant-position:normal;font-variant-caps:normal;font-variant-numeric:normal;font-variant-alternates:normal;font-feature-settings:normal;text-indent:0;text-align:start;text-decoration-line:none;text-decoration-style:solid;text-decoration-color:#000;text-transform:none;text-orientation:mixed;white-space:normal;shape-padding:0;isolation:auto;mix-blend-mode:normal;solid-color:#000;solid-opacity:1" color="#000" font-weight="400" font-family="sans-serif" overflow="visible" fill-rule="evenodd"/>
        <path d="M10 2a2 2 0 01-2 2 2 2 0 01-2-2 2 2 0 012-2 2 2 0 012 2z"/>
    </g>
</svg>
